Muli-Bold-Italic.ufo
<glyph name="exclam" format="1">
  <advance width="666.616505906"/>
  <unicode hex="0021"/>
  <outline>
    <contour>
      <point x="230.0" y="0" type="line"/>
      <point x="253.0" y="262" type="line"/>
      <point x="532.0" y="262" type="line"/>
      <point x="509.0" y="0" type="line"/>
    </contour>
    <contour>
      <point x="334.0" y="385" type="line"/>
      <point x="358.0" y="1456" type="line"/>
      <point x="638.0" y="1456" type="line"/>
      <point x="474.0" y="385" type="line"/>
    </contour>
  </outline>
</glyph>
<glyph name="quotedbl" format="1">
  <advance width="720"/>
  <unicode hex="0022"/>
  <outline>
    <contour>
      <point x="190" y="884" type="line"/>
      <point x="203" y="1456" type="line"/>
      <point x="433" y="1456" type="line"/>
      <point x="322" y="884" type="line"/>
    </contour>
    <contour>
      <point x="526" y="884" type="line"/>
      <point x="539" y="1456" type="line"/>
      <point x="769" y="1456" type="line"/>
      <point x="658" y="884" type="line"/>
    </contour>
  </outline>
</glyph>
<glyph name="numbersign" format="1">
  <advance width="1242"/>
  <unicode hex="0023"/>
  <outline>
    <contour>
      <point x="220" y="118" type="line"/>
      <point x="335" y="517" type="line"/>
      <point x="92" y="517" type="line"/>
      <point x="116" y="671" type="line"/>
      <point x="374" y="671" type="line"/>
      <point x="450" y="925" type="line"/>
      <point x="197" y="925" type="line"/>
      <point x="222" y="1073" type="line"/>
      <point x="483" y="1073" type="line"/>
      <point x="598" y="1456" type="line"/>
      <point x="777" y="1456" type="line"/>
      <point x="671" y="1073" type="line"/>
      <point x="869" y="1073" type="line"/>
      <point x="977" y="1456" type="line"/>
      <point x="1159" y="1456" type="line"/>
      <point x="1051" y="1073" type="line"/>
      <point x="1291" y="1073" type="line"/>
      <point x="1266" y="925" type="line"/>
      <point x="1010" y="925" type="line"/>
      <point x="936" y="671" type="line"/>
      <point x="1188" y="671" type="line"/>
      <point x="1166" y="517" type="line"/>
      <point x="901" y="517" type="line"/>
      <point x="788" y="118" type="line"/>
      <point x="606" y="118" type="line"/>
      <point x="714" y="517" type="line"/>
      <point x="516" y="517" type="line"/>
      <point x="407" y="118" type="line"/>
    </contour>
    <contour>
      <point x="555" y="671" type="line"/>
      <point x="754" y="671" type="line"/>
      <point x="828" y="925" type="line"/>
      <point x="630" y="925" type="line"/>
    </contour>
  </outline>
</glyph>
<glyph name="percent" format="1">
  <advance width="1985.7796763"/>
  <unicode hex="0025"/>
  <outline>
    <contour>
      <point x="590" y="857" type="curve" smooth="yes"/>
      <point x="481" y="857"/>
      <point x="437" y="958"/>
      <point x="448" y="1085" type="curve" smooth="yes"/>
      <point x="458" y="1202"/>
      <point x="514" y="1314"/>
      <point x="630" y="1314" type="curve" smooth="yes"/>
      <point x="746" y="1314"/>
      <point x="782" y="1202"/>
      <point x="772" y="1085" type="curve" smooth="yes"/>
      <point x="761" y="958"/>
      <point x="699" y="857"/>
    </contour>
    <contour>
      <point x="577" y="707" type="curve" smooth="yes"/>
      <point x="801" y="707"/>
      <point x="954" y="869"/>
      <point x="973" y="1085" type="curve" smooth="yes"/>
      <point x="991" y="1294"/>
      <point x="868" y="1464"/>
      <point x="643" y="1464" type="curve" smooth="yes"/>
      <point x="418" y="1464"/>
      <point x="265" y="1294"/>
      <point x="247" y="1085" type="curve" smooth="yes"/>
      <point x="228" y="869"/>
      <point x="353" y="707"/>
    </contour>
    <contour>
      <point x="434.925640512" y="0" type="line"/>
      <point x="628.925640512" y="0" type="line"/>
      <point x="1661.92564051" y="1456" type="line"/>
      <point x="1466.92564051" y="1456" type="line"/>
    </contour>
    <contour>
      <point x="1481.92564051" y="128" type="curve" smooth="yes"/>
      <point x="1372.92564051" y="128"/>
      <point x="1328.92564051" y="229"/>
      <point x="1339.92564051" y="356" type="curve" smooth="yes"/>
      <point x="1349.92564051" y="473"/>
      <point x="1405.92564051" y="585"/>
      <point x="1521.92564051" y="585" type="curve" smooth="yes"/>
      <point x="1637.92564051" y="585"/>
      <point x="1673.92564051" y="473"/>
      <point x="1663.92564051" y="356" type="curve" smooth="yes"/>
      <point x="1652.92564051" y="229"/>
      <point x="1590.92564051" y="128"/>
    </contour>
    <contour>
      <point x="1468.92564051" y="-22" type="curve" smooth="yes"/>
      <point x="1692.92564051" y="-22"/>
      <point x="1845.92564051" y="140"/>
      <point x="1864.92564051" y="356" type="curve" smooth="yes"/>
      <point x="1882.92564051" y="565"/>
      <point x="1759.92564051" y="735"/>
      <point x="1534.92564051" y="735" type="curve" smooth="yes"/>
      <point x="1309.92564051" y="735"/>
      <point x="1156.92564051" y="565"/>
      <point x="1138.92564051" y="356" type="curve" smooth="yes"/>
      <point x="1119.92564051" y="140"/>
      <point x="1244.92564051" y="-22"/>
    </contour>
  </outline>
</glyph>
<glyph name="ampersand" format="1">
  <advance width="1670"/>
  <unicode hex="0026"/>
  <outline>
    <contour>
      <point x="678" y="-27" type="curve" smooth="yes"/>
      <point x="367" y="-27"/>
      <point x="142" y="136"/>
      <point x="166" y="412" type="curve" smooth="yes"/>
      <point x="184" y="623"/>
      <point x="364" y="769"/>
      <point x="553" y="867" type="curve"/>
      <point x="461" y="969"/>
      <point x="405" y="1056"/>
      <point x="415" y="1175" type="curve" smooth="yes"/>
      <point x="433" y="1377"/>
      <point x="613" y="1483"/>
      <point x="820" y="1483" type="curve" smooth="yes"/>
      <point x="1018" y="1483"/>
      <point x="1207" y="1386"/>
      <point x="1189" y="1181" type="curve" smooth="yes"/>
      <point x="1176" y="1034"/>
      <point x="1041" y="909"/>
      <point x="889" y="824" type="curve"/>
      <point x="1180" y="462" type="line"/>
      <point x="1272" y="596"/>
      <point x="1319" y="753"/>
      <point x="1334" y="919" type="curve"/>
      <point x="1563" y="874" type="line"/>
      <point x="1545" y="672"/>
      <point x="1456" y="451"/>
      <point x="1330" y="296" type="curve"/>
      <point x="1424" y="196"/>
      <point x="1481" y="172"/>
      <point x="1675" y="129" type="curve"/>
      <point x="1474" y="-17" type="line"/>
      <point x="1332" y="4"/>
      <point x="1267" y="54"/>
      <point x="1171" y="156" type="curve"/>
      <point x="1048" y="55"/>
      <point x="880" y="-27"/>
    </contour>
    <contour>
      <point x="696" y="173" type="curve" smooth="yes"/>
      <point x="838" y="173"/>
      <point x="943" y="231"/>
      <point x="1034" y="304" type="curve"/>
      <point x="683" y="724" type="line"/>
      <point x="556" y="660"/>
      <point x="431" y="551"/>
      <point x="419" y="413" type="curve" smooth="yes"/>
      <point x="407" y="273"/>
      <point x="524" y="173"/>
    </contour>
    <contour>
      <point x="751" y="963" type="curve"/>
      <point x="851" y="1018"/>
      <point x="936" y="1089"/>
      <point x="943" y="1172" type="curve" smooth="yes"/>
      <point x="951" y="1260"/>
      <point x="879" y="1294"/>
      <point x="814" y="1294" type="curve" smooth="yes"/>
      <point x="734" y="1294"/>
      <point x="667" y="1253"/>
      <point x="660" y="1170" type="curve" smooth="yes"/>
      <point x="653" y="1095"/>
      <point x="690" y="1026"/>
    </contour>
  </outline>
</glyph>
<glyph name="parenleft" format="1">
  <advance width="628"/>
  <unicode hex="0028"/>
  <outline>
    <contour>
      <point x="366" y="-211" type="line"/>
      <point x="227" y="32"/>
      <point x="128" y="325"/>
      <point x="153" y="615" type="curve" smooth="yes"/>
      <point x="180" y="920"/>
      <point x="315" y="1193"/>
      <point x="504" y="1456" type="curve"/>
      <point x="734" y="1456" type="line"/>
      <point x="538" y="1186"/>
      <point x="414" y="894"/>
      <point x="389" y="613" type="curve" smooth="yes"/>
      <point x="366" y="352"/>
      <point x="452" y="47"/>
      <point x="588" y="-211" type="curve"/>
    </contour>
  </outline>
</glyph>
<glyph name="parenright" format="1">
  <advance width="655.494866859"/>
  <unicode hex="0029"/>
  <outline>
    <contour>
      <point x="29" y="-211" type="line"/>
      <point x="206" y="38"/>
      <point x="341" y="332"/>
      <point x="367" y="634" type="curve" smooth="yes"/>
      <point x="388" y="876"/>
      <point x="318" y="1186"/>
      <point x="169" y="1456" type="curve"/>
      <point x="394" y="1456" type="line"/>
      <point x="534" y="1210"/>
      <point x="625" y="911"/>
      <point x="600" y="623" type="curve" smooth="yes"/>
      <point x="573" y="312"/>
      <point x="442" y="43"/>
      <point x="263" y="-211" type="curve"/>
    </contour>
  </outline>
</glyph>
<glyph name="plus" format="1">
  <advance width="1265.76473329"/>
  <unicode hex="002B"/>
  <outline>
    <contour>
      <point x="526.719853241" y="57" type="line"/>
      <point x="560.719853241" y="454" type="line"/>
      <point x="180.719853241" y="454" type="line"/>
      <point x="198.719853241" y="651" type="line"/>
      <point x="580.719853241" y="651" type="line"/>
      <point x="614.719853241" y="1047" type="line"/>
      <point x="834.719853241" y="1047" type="line"/>
      <point x="800.719853241" y="651" type="line"/>
      <point x="1181.71985324" y="651" type="line"/>
      <point x="1163.71985324" y="454" type="line"/>
      <point x="781.719853241" y="454" type="line"/>
      <point x="747.719853241" y="57" type="line"/>
    </contour>
  </outline>
</glyph>
<glyph name="hyphen" format="1">
  <advance width="752.094744007"/>
  <unicode hex="002D"/>
  <outline>
    <contour>
      <point x="126.069807895" y="458" type="line"/>
      <point x="142.069807895" y="639" type="line"/>
      <point x="736.0" y="639" type="line"/>
      <point x="720.0" y="458" type="line"/>
    </contour>
  </outline>
</glyph>
<glyph name="one" format="1">
  <advance width="1264"/>
  <unicode hex="0031"/>
  <outline>
    <contour>
      <point x="296" y="0" type="line"/>
      <point x="313" y="192" type="line"/>
      <point x="558" y="192" type="line"/>
      <point x="646" y="1197" type="line"/>
      <point x="572" y="1162"/>
      <point x="490" y="1128"/>
      <point x="374" y="1084" type="curve"/>
      <point x="393" y="1303" type="line"/>
      <point x="502" y="1343"/>
      <point x="606" y="1395"/>
      <point x="699" y="1445" type="curve"/>
      <point x="921" y="1483" type="line"/>
      <point x="808" y="189" type="line"/>
      <point x="1048" y="189" type="line"/>
      <point x="1031" y="0" type="line"/>
    </contour>
  </outline>
</glyph>
<glyph name="two" format="1">
  <advance width="1254"/>
  <unicode hex="0032"/>
  <outline>
    <contour>
      <point x="137" y="0" type="line"/>
      <point x="153" y="178" type="line"/>
      <point x="663" y="643" type="line" smooth="yes"/>
      <point x="850" y="813"/>
      <point x="927.065728188" y="945.445036769"/>
      <point x="938" y="1068" type="curve" smooth="yes"/>
      <point x="950" y="1201"/>
      <point x="863" y="1276"/>
      <point x="734" y="1276" type="curve" smooth="yes"/>
      <point x="597" y="1276"/>
      <point x="465" y="1226"/>
      <point x="371" y="1103" type="curve"/>
      <point x="238" y="1243" type="line"/>
      <point x="347" y="1401"/>
      <point x="538" y="1481"/>
      <point x="757" y="1481" type="curve" smooth="yes"/>
      <point x="1030" y="1481"/>
      <point x="1206" y="1339"/>
      <point x="1182" y="1065" type="curve" smooth="yes"/>
      <point x="1166.5" y="885.5"/>
      <point x="1034" y="687"/>
      <point x="814" y="497" type="curve" smooth="yes"/>
      <point x="469" y="199" type="line"/>
      <point x="1112" y="199" type="line"/>
      <point x="1094" y="0" type="line"/>
    </contour>
  </outline>
</glyph>
<glyph name="four" format="1">
  <advance width="1264"/>
  <unicode hex="0034"/>
  <outline>
    <contour>
      <point x="742" y="0" type="line"/>
      <point x="777" y="393" type="line"/>
      <point x="133" y="393" type="line"/>
      <point x="146" y="547" type="line"/>
      <point x="853" y="1456" type="line"/>
      <point x="1114" y="1456" type="line"/>
      <point x="1037" y="579" type="line"/>
      <point x="1238" y="579" type="line"/>
      <point x="1222" y="393" type="line"/>
      <point x="1025" y="393" type="line"/>
      <point x="990" y="0" type="line"/>
    </contour>
    <contour>
      <point x="403" y="579" type="line"/>
      <point x="796" y="579" type="line"/>
      <point x="844" y="1125" type="line"/>
      <point x="761" y="1023" type="line"/>
    </contour>
  </outline>
</glyph>
<glyph name="five" format="1">
  <advance width="1254"/>
  <unicode hex="0035"/>
  <outline>
    <contour>
      <point x="611" y="-23" type="curve" smooth="yes"/>
      <point x="448" y="-23"/>
      <point x="284" y="40"/>
      <point x="170" y="171" type="curve"/>
      <point x="311" y="352" type="line"/>
      <point x="397" y="237"/>
      <point x="515" y="184"/>
      <point x="624" y="184" type="curve" smooth="yes"/>
      <point x="774" y="184"/>
      <point x="908" y="285"/>
      <point x="925" y="475" type="curve" smooth="yes"/>
      <point x="937" y="616"/>
      <point x="873" y="743"/>
      <point x="741" y="743" type="curve" smooth="yes"/>
      <point x="670" y="743"/>
      <point x="597" y="724"/>
      <point x="556" y="672" type="curve"/>
      <point x="320" y="701" type="line"/>
      <point x="386" y="1456" type="line"/>
      <point x="1190" y="1456" type="line"/>
      <point x="1172" y="1249" type="line"/>
      <point x="583" y="1249" type="line"/>
      <point x="537" y="863" type="line"/>
      <point x="601" y="936"/>
      <point x="702" y="958"/>
      <point x="804" y="958" type="curve" smooth="yes"/>
      <point x="1032" y="958"/>
      <point x="1198" y="749"/>
      <point x="1174" y="471" type="curve" smooth="yes"/>
      <point x="1146" y="148"/>
      <point x="880" y="-23"/>
    </contour>
  </outline>
</glyph>
<glyph name="six" format="1">
  <advance width="1264"/>
  <unicode hex="0036"/>
  <outline>
    <contour>
      <point x="672" y="-23" type="curve" smooth="yes"/>
      <point x="315" y="-23"/>
      <point x="166" y="267"/>
      <point x="204" y="697" type="curve" smooth="yes"/>
      <point x="242" y="1128"/>
      <point x="473" y="1483"/>
      <point x="857" y="1483" type="curve" smooth="yes"/>
      <point x="1005" y="1483"/>
      <point x="1126" y="1440"/>
      <point x="1210" y="1356" type="curve"/>
      <point x="1114" y="1176" type="line"/>
      <point x="1035" y="1243"/>
      <point x="945" y="1276"/>
      <point x="841" y="1276" type="curve" smooth="yes"/>
      <point x="663" y="1276"/>
      <point x="525" y="1105"/>
      <point x="478" y="872" type="curve" smooth="yes"/>
      <point x="473" y="849"/>
      <point x="470" y="824"/>
      <point x="467" y="800" type="curve"/>
      <point x="556" y="913"/>
      <point x="668" y="958"/>
      <point x="783" y="958" type="curve" smooth="yes"/>
      <point x="1066" y="958"/>
      <point x="1235" y="770"/>
      <point x="1209" y="474" type="curve" smooth="yes"/>
      <point x="1184" y="191"/>
      <point x="975" y="-23"/>
    </contour>
    <contour>
      <point x="685" y="184" type="curve" smooth="yes"/>
      <point x="837" y="184"/>
      <point x="945" y="309"/>
      <point x="959" y="471" type="curve" smooth="yes"/>
      <point x="973" y="633"/>
      <point x="905" y="760"/>
      <point x="747" y="760" type="curve" smooth="yes"/>
      <point x="582" y="760"/>
      <point x="468" y="639"/>
      <point x="454" y="475" type="curve" smooth="yes"/>
      <point x="438" y="292"/>
      <point x="555" y="184"/>
    </contour>
  </outline>
</glyph>
<glyph name="eight" format="1">
  <advance width="1264"/>
  <unicode hex="0038"/>
  <outline>
    <contour>
      <point x="651" y="-23" type="curve" smooth="yes"/>
      <point x="368" y="-23"/>
      <point x="160" y="127"/>
      <point x="183" y="392" type="curve" smooth="yes"/>
      <point x="198" y="558"/>
      <point x="311" y="691"/>
      <point x="479" y="764" type="curve"/>
      <point x="350" y="834"/>
      <point x="263" y="943"/>
      <point x="277" y="1101" type="curve" smooth="yes"/>
      <point x="298" y="1342"/>
      <point x="509" y="1483"/>
      <point x="777" y="1483" type="curve" smooth="yes"/>
      <point x="1064" y="1483"/>
      <point x="1235" y="1336"/>
      <point x="1214" y="1092" type="curve" smooth="yes"/>
      <point x="1200" y="933"/>
      <point x="1100" y="824"/>
      <point x="957" y="761" type="curve"/>
      <point x="1098" y="693"/>
      <point x="1197" y="547"/>
      <point x="1183" y="385" type="curve" smooth="yes"/>
      <point x="1160" y="121"/>
      <point x="910" y="-23"/>
    </contour>
    <contour>
      <point x="666" y="184" type="curve" smooth="yes"/>
      <point x="816" y="184"/>
      <point x="926" y="253"/>
      <point x="939" y="405" type="curve" smooth="yes"/>
      <point x="950" y="527"/>
      <point x="848" y="641"/>
      <point x="714" y="675" type="curve"/>
      <point x="563" y="643"/>
      <point x="446" y="539"/>
      <point x="434" y="402" type="curve" smooth="yes"/>
      <point x="422" y="261"/>
      <point x="513" y="184"/>
    </contour>
    <contour>
      <point x="724" y="855" type="curve"/>
      <point x="864" y="893"/>
      <point x="957" y="978"/>
      <point x="968" y="1101" type="curve" smooth="yes"/>
      <point x="978" y="1213"/>
      <point x="882" y="1276"/>
      <point x="760" y="1276" type="curve" smooth="yes"/>
      <point x="631" y="1276"/>
      <point x="532" y="1217"/>
      <point x="521" y="1091" type="curve" smooth="yes"/>
      <point x="511" y="976"/>
      <point x="588" y="890"/>
    </contour>
  </outline>
</glyph>
<glyph name="nine" format="1">
  <advance width="1264"/>
  <unicode hex="0039"/>
  <outline>
    <contour>
      <point x="579" y="-25" type="curve" smooth="yes"/>
      <point x="467" y="-25"/>
      <point x="343" y="7"/>
      <point x="210" y="75" type="curve"/>
      <point x="314" y="271" type="line"/>
      <point x="396" y="216"/>
      <point x="488" y="185"/>
      <point x="577" y="185" type="curve" smooth="yes"/>
      <point x="761" y="185"/>
      <point x="929" y="316"/>
      <point x="957" y="633" type="curve" smooth="yes"/>
      <point x="959" y="665" type="line"/>
      <point x="881" y="557"/>
      <point x="760" y="521"/>
      <point x="645" y="521" type="curve" smooth="yes"/>
      <point x="358" y="521"/>
      <point x="194" y="714"/>
      <point x="218" y="993" type="curve" smooth="yes"/>
      <point x="242" y="1271"/>
      <point x="453" y="1483"/>
      <point x="762" y="1483" type="curve" smooth="yes"/>
      <point x="1090" y="1483"/>
      <point x="1258" y="1228"/>
      <point x="1218" y="771" type="curve" smooth="yes"/>
      <point x="1176" y="290"/>
      <point x="934" y="-25"/>
    </contour>
    <contour>
      <point x="466" y="998" type="curve" smooth="yes"/>
      <point x="452" y="842"/>
      <point x="519" y="722"/>
      <point x="687" y="722" type="curve" smooth="yes"/>
      <point x="843" y="722"/>
      <point x="967" y="820"/>
      <point x="984" y="1012" type="curve" smooth="yes"/>
      <point x="996" y="1152"/>
      <point x="915" y="1276"/>
      <point x="752" y="1276" type="curve" smooth="yes"/>
      <point x="591" y="1276"/>
      <point x="480" y="1162"/>
    </contour>
  </outline>
</glyph>
<glyph name="semicolon" format="1">
  <advance width="540"/>
  <unicode hex="003B"/>
  <outline>
    <contour>
      <point x="12" y="-240" type="line"/>
      <point x="163" y="259" type="line"/>
      <point x="430" y="259" type="line"/>
      <point x="211" y="-240" type="line"/>
    </contour>
    <contour>
      <point x="215" y="879" type="line"/>
      <point x="238" y="1141" type="line"/>
      <point x="485" y="1141" type="line"/>
      <point x="462" y="879" type="line"/>
    </contour>
  </outline>
</glyph>
<glyph name="equal" format="1">
  <advance width="1459"/>
  <unicode hex="003D"/>
  <outline>
    <contour>
      <point x="244" y="646" type="line"/>
      <point x="261" y="838" type="line"/>
      <point x="1326" y="838" type="line"/>
      <point x="1309" y="646" type="line"/>
    </contour>
    <contour>
      <point x="211" y="267" type="line"/>
      <point x="228" y="458" type="line"/>
      <point x="1295" y="458" type="line"/>
      <point x="1278" y="267" type="line"/>
    </contour>
  </outline>
</glyph>
<glyph name="greater" format="1">
  <advance width="1458"/>
  <unicode hex="003E"/>
  <outline>
    <contour>
      <point x="228" y="30" type="line"/>
      <point x="248" y="251" type="line"/>
      <point x="970" y="557" type="line"/>
      <point x="308" y="883" type="line"/>
      <point x="327" y="1099" type="line"/>
      <point x="1312" y="605" type="line"/>
      <point x="1301" y="486" type="line"/>
    </contour>
  </outline>
</glyph>
<glyph name="question" format="1">
  <advance width="1032"/>
  <unicode hex="003F"/>
  <outline>
    <contour>
      <point x="335" y="393" type="line"/>
      <point x="560" y="393" type="line"/>
      <point x="562" y="413"/>
      <point x="563" y="432"/>
      <point x="565" y="449" type="curve" smooth="yes"/>
      <point x="599.611824498" y="829.730069475"/>
      <point x="973.947564798" y="800.05929224"/>
      <point x="1002" y="1125" type="curve" smooth="yes"/>
      <point x="1023" y="1367"/>
      <point x="851" y="1484"/>
      <point x="618" y="1484" type="curve" smooth="yes"/>
      <point x="511" y="1484"/>
      <point x="390" y="1459"/>
      <point x="270" y="1410" type="curve"/>
      <point x="252" y="1198" type="line"/>
      <point x="358" y="1246"/>
      <point x="474" y="1278"/>
      <point x="568" y="1278" type="curve" smooth="yes"/>
      <point x="686" y="1278"/>
      <point x="770" y="1234"/>
      <point x="760" y="1118" type="curve" smooth="yes"/>
      <point x="742" y="915"/>
      <point x="372" y="802"/>
      <point x="349" y="543" type="curve" smooth="yes"/>
    </contour>
    <contour>
      <point x="275" y="0" type="line"/>
      <point x="554" y="0" type="line"/>
      <point x="577" y="262" type="line"/>
      <point x="298" y="262" type="line"/>
    </contour>
  </outline>
</glyph>
<glyph name="at" format="1">
  <advance width="1896"/>
  <unicode hex="0040"/>
  <outline>
    <contour>
      <point x="913" y="430" type="curve" smooth="yes"/>
      <point x="1055" y="430"/>
      <point x="1178" y="622"/>
      <point x="1195" y="816" type="curve" smooth="yes"/>
      <point x="1203" y="909"/>
      <point x="1178" y="963"/>
      <point x="1100" y="963" type="curve" smooth="yes"/>
      <point x="945" y="963"/>
      <point x="818" y="753"/>
      <point x="803" y="585" type="curve" smooth="yes"/>
      <point x="795" y="492"/>
      <point x="833" y="430"/>
    </contour>
    <contour>
      <point x="975" y="-114" type="curve" smooth="yes"/>
      <point x="497" y="-114"/>
      <point x="153" y="184"/>
      <point x="195" y="660" type="curve" smooth="yes"/>
      <point x="240" y="1172"/>
      <point x="665" y="1482"/>
      <point x="1135" y="1482" type="curve" smooth="yes"/>
      <point x="1556" y="1482"/>
      <point x="1862" y="1196"/>
      <point x="1826" y="787" type="curve" smooth="yes"/>
      <point x="1803" y="524"/>
      <point x="1614" y="246"/>
      <point x="1388" y="246" type="curve" smooth="yes"/>
      <point x="1227" y="246"/>
      <point x="1172" y="350"/>
      <point x="1183" y="476" type="curve" smooth="yes"/>
      <point x="1185" y="496"/>
      <point x="1188" y="517"/>
      <point x="1193" y="538" type="curve"/>
      <point x="1123" y="382"/>
      <point x="1006" y="246"/>
      <point x="847" y="246" type="curve" smooth="yes"/>
      <point x="688" y="246"/>
      <point x="554" y="368"/>
      <point x="576" y="616" type="curve" smooth="yes"/>
      <point x="603" y="929"/>
      <point x="882" y="1157"/>
      <point x="1079" y="1157" type="curve" smooth="yes"/>
      <point x="1173" y="1157"/>
      <point x="1249" y="1104"/>
      <point x="1270" y="980" type="curve"/>
      <point x="1304" y="1114" type="line"/>
      <point x="1512" y="1114" type="line"/>
      <point x="1375" y="628" type="line" smooth="yes"/>
      <point x="1362" y="581"/>
      <point x="1354" y="540"/>
      <point x="1351" y="506" type="curve" smooth="yes"/>
      <point x="1343" y="411"/>
      <point x="1372" y="368"/>
      <point x="1415" y="368" type="curve" smooth="yes"/>
      <point x="1502" y="368"/>
      <point x="1648" y="536"/>
      <point x="1670" y="793" type="curve" smooth="yes"/>
      <point x="1702" y="1156"/>
      <point x="1439" y="1339"/>
      <point x="1146" y="1339" type="curve" smooth="yes"/>
      <point x="780" y="1339"/>
      <point x="428" y="1110"/>
      <point x="389" y="660" type="curve" smooth="yes"/>
      <point x="352" y="238"/>
      <point x="670" y="38"/>
      <point x="1006" y="38" type="curve" smooth="yes"/>
      <point x="1168" y="38"/>
      <point x="1342" y="85"/>
      <point x="1500" y="177" type="curve"/>
      <point x="1561" y="74" type="line"/>
      <point x="1392" y="-46"/>
      <point x="1185" y="-114"/>
    </contour>
  </outline>
</glyph>
<glyph name="A" format="1">
  <advance width="1428.0"/>
  <unicode hex="0041"/>
  <outline>
    <contour>
      <point x="543" y="581" type="line"/>
      <point x="977" y="581" type="line"/>
      <point x="891.0" y="882" type="line"/>
      <point x="807.0" y="1179" type="line"/>
      <point x="677.0" y="882" type="line"/>
    </contour>
    <contour>
      <point x="18.0" y="0" type="line"/>
      <point x="705.0" y="1456" type="line"/>
      <point x="950.0" y="1456" type="line"/>
      <point x="1420.0" y="0" type="line"/>
      <point x="1157.0" y="0" type="line"/>
      <point x="1044" y="369" type="line"/>
      <point x="455" y="369" type="line"/>
      <point x="295.0" y="0" type="line"/>
    </contour>
  </outline>
</glyph>
<glyph name="B" format="1">
  <advance width="1344.77971638"/>
  <unicode hex="0042"/>
  <outline>
    <contour>
      <point x="186.0" y="0" type="line"/>
      <point x="314.0" y="1456" type="line"/>
      <point x="698.0" y="1456" type="line" smooth="yes"/>
      <point x="952.0" y="1456"/>
      <point x="1292.0" y="1429"/>
      <point x="1262.0" y="1088" type="curve" smooth="yes"/>
      <point x="1251.0" y="957"/>
      <point x="1184.0" y="840"/>
      <point x="1031.0" y="775" type="curve"/>
      <point x="1211.0" y="730"/>
      <point x="1286.0" y="588"/>
      <point x="1271.0" y="414" type="curve" smooth="yes"/>
      <point x="1252.0" y="196"/>
      <point x="1064.0" y="0"/>
      <point x="702.0" y="0" type="curve" smooth="yes"/>
    </contour>
    <contour>
      <point x="448.0" y="207" type="line"/>
      <point x="677.0" y="207" type="line" smooth="yes"/>
      <point x="881.0" y="207"/>
      <point x="999.0" y="280"/>
      <point x="1012.0" y="424" type="curve" smooth="yes"/>
      <point x="1028.0" y="602"/>
      <point x="945.0" y="654"/>
      <point x="706.0" y="654" type="curve" smooth="yes"/>
      <point x="488.0" y="654" type="line"/>
    </contour>
    <contour>
      <point x="503.0" y="852" type="line"/>
      <point x="711.0" y="852" type="line" smooth="yes"/>
      <point x="847.0" y="852"/>
      <point x="989.0" y="896"/>
      <point x="1003.0" y="1057" type="curve" smooth="yes"/>
      <point x="1017.0" y="1215"/>
      <point x="901.0" y="1249"/>
      <point x="700.0" y="1249" type="curve" smooth="yes"/>
      <point x="538.0" y="1249" type="line"/>
    </contour>
  </outline>
</glyph>
<glyph name="C" format="1">
  <advance width="1426"/>
  <unicode hex="0043"/>
  <outline>
    <contour>
      <point x="813" y="-23" type="curve" smooth="yes"/>
      <point x="335" y="-23"/>
      <point x="136" y="340"/>
      <point x="168" y="710" type="curve" smooth="yes"/>
      <point x="202" y="1093"/>
      <point x="471" y="1483"/>
      <point x="926" y="1483" type="curve" smooth="yes"/>
      <point x="1121" y="1483"/>
      <point x="1276" y="1429"/>
      <point x="1405" y="1308" type="curve"/>
      <point x="1295" y="1140" type="line"/>
      <point x="1177" y="1228"/>
      <point x="1054" y="1275"/>
      <point x="929" y="1275" type="curve" smooth="yes"/>
      <point x="627" y="1275"/>
      <point x="447" y="991"/>
      <point x="423" y="713" type="curve" smooth="yes"/>
      <point x="400" y="446"/>
      <point x="531" y="184"/>
      <point x="851" y="184" type="curve" smooth="yes"/>
      <point x="988" y="184"/>
      <point x="1139" y="237"/>
      <point x="1276" y="339" type="curve"/>
      <point x="1339" y="140" type="line"/>
      <point x="1194" y="33"/>
      <point x="1017" y="-23"/>
    </contour>
  </outline>
</glyph>
<glyph name="D" format="1">
  <advance width="1557.0"/>
  <unicode hex="0044"/>
  <outline>
    <contour>
      <point x="448.0" y="207" type="line"/>
      <point x="659.0" y="207" type="line" smooth="yes"/>
      <point x="1019.0" y="207"/>
      <point x="1230.0" y="391"/>
      <point x="1260.0" y="734" type="curve" smooth="yes"/>
      <point x="1289.0" y="1069"/>
      <point x="1089.0" y="1249"/>
      <point x="687.0" y="1249" type="curve" smooth="yes"/>
      <point x="540.0" y="1249" type="line"/>
    </contour>
    <contour>
      <point x="186.0" y="0" type="line"/>
      <point x="314.0" y="1456" type="line"/>
      <point x="682.0" y="1456" type="line" smooth="yes"/>
      <point x="1265.0" y="1456"/>
      <point x="1556.0" y="1203"/>
      <point x="1515.0" y="733" type="curve" smooth="yes"/>
      <point x="1473.0" y="257"/>
      <point x="1163.0" y="0"/>
      <point x="628.0" y="0" type="curve" smooth="yes"/>
    </contour>
  </outline>
</glyph>
<glyph name="E" format="1">
  <advance width="1229.0"/>
  <unicode hex="0045"/>
  <outline>
    <contour>
      <point x="186.0" y="0" type="line"/>
      <point x="314.0" y="1456" type="line"/>
      <point x="1224.0" y="1456" type="line"/>
      <point x="1206.0" y="1249" type="line"/>
      <point x="538.0" y="1249" type="line"/>
      <point x="503.0" y="849" type="line"/>
      <point x="1134.0" y="849" type="line"/>
      <point x="1115.0" y="641" type="line"/>
      <point x="486.0" y="641" type="line"/>
      <point x="448.0" y="207" type="line"/>
      <point x="1143.0" y="207" type="line"/>
      <point x="1125.0" y="0" type="line"/>
    </contour>
  </outline>
</glyph>
<glyph name="F" format="1">
  <advance width="1153.0"/>
  <unicode hex="0046"/>
  <outline>
    <contour>
      <point x="186.0" y="0" type="line"/>
      <point x="314.0" y="1456" type="line"/>
      <point x="1201.0" y="1456" type="line"/>
      <point x="1183.0" y="1249" type="line"/>
      <point x="539.0" y="1249" type="line"/>
      <point x="503.0" y="844" type="line"/>
      <point x="1114.0" y="844" type="line"/>
      <point x="1096.0" y="636" type="line"/>
      <point x="485.0" y="636" type="line"/>
      <point x="429.0" y="0" type="line"/>
    </contour>
  </outline>
</glyph>
<glyph name="G" format="1">
  <advance width="1543.95104296"/>
  <unicode hex="0047"/>
  <outline>
    <contour>
      <point x="848" y="-22" type="curve" smooth="yes"/>
      <point x="360" y="-22"/>
      <point x="130" y="267"/>
      <point x="168" y="704" type="curve" smooth="yes"/>
      <point x="205" y="1129"/>
      <point x="518" y="1482"/>
      <point x="1004" y="1482" type="curve" smooth="yes"/>
      <point x="1331" y="1482"/>
      <point x="1467" y="1341"/>
      <point x="1467" y="1341" type="curve"/>
      <point x="1363" y="1166" type="line"/>
      <point x="1363" y="1166"/>
      <point x="1242" y="1276"/>
      <point x="991" y="1276" type="curve" smooth="yes"/>
      <point x="647" y="1276"/>
      <point x="446" y="1004"/>
      <point x="421" y="715" type="curve" smooth="yes"/>
      <point x="394" y="404"/>
      <point x="538" y="184"/>
      <point x="877" y="184" type="curve" smooth="yes"/>
      <point x="963" y="184"/>
      <point x="1081" y="201"/>
      <point x="1166" y="227" type="curve"/>
      <point x="1195" y="581" type="line"/>
      <point x="829" y="581" type="line"/>
      <point x="847" y="788" type="line"/>
      <point x="1437" y="788" type="line"/>
      <point x="1380" y="92" type="line"/>
      <point x="1199" y="6"/>
      <point x="1016" y="-22"/>
    </contour>
  </outline>
</glyph>
<glyph name="H" format="1">
  <advance width="1542.61650591"/>
  <unicode hex="0048"/>
  <outline>
    <contour>
      <point x="186.0" y="0" type="line"/>
      <point x="314.0" y="1456" type="line"/>
      <point x="555.0" y="1456" type="line"/>
      <point x="502.0" y="851" type="line"/>
      <point x="1188.0" y="851" type="line"/>
      <point x="1241.0" y="1456" type="line"/>
      <point x="1484.0" y="1456" type="line"/>
      <point x="1356.0" y="0" type="line"/>
      <point x="1117.0" y="0" type="line"/>
      <point x="1174.0" y="643" type="line"/>
      <point x="488.0" y="643" type="line"/>
      <point x="431.0" y="0" type="line"/>
    </contour>
  </outline>
</glyph>
<glyph name="J" format="1">
  <advance width="868.994566754"/>
  <unicode hex="004A"/>
  <outline>
    <contour>
      <point x="256.378060848" y="-331" type="curve" smooth="yes"/>
      <point x="167.378060848" y="-331"/>
      <point x="64.378060848" y="-311"/>
      <point x="-45.621939152" y="-270" type="curve"/>
      <point x="12.378060848" y="-85" type="line"/>
      <point x="101.378060848" y="-114"/>
      <point x="174.378060848" y="-127"/>
      <point x="232.378060848" y="-127" type="curve" smooth="yes"/>
      <point x="382.378060848" y="-127"/>
      <point x="432.378060848" y="-35"/>
      <point x="445.378060848" y="112" type="curve" smooth="yes"/>
      <point x="562.378060848" y="1456" type="line"/>
      <point x="810.378060848" y="1456" type="line"/>
      <point x="693.378060848" y="121" type="line" smooth="yes"/>
      <point x="667.378060848" y="-174"/>
      <point x="507.378060848" y="-331"/>
    </contour>
  </outline>
</glyph>
<glyph name="K" format="1">
  <advance width="1331.0"/>
  <unicode hex="004B"/>
  <outline>
    <contour>
      <point x="188.0" y="0" type="line"/>
      <point x="316.0" y="1456" type="line"/>
      <point x="558.0" y="1456" type="line"/>
      <point x="501.0" y="815" type="line"/>
      <point x="1123.0" y="1456" type="line"/>
      <point x="1425.0" y="1456" type="line"/>
      <point x="732.0" y="752" type="line"/>
      <point x="1333.0" y="0" type="line"/>
      <point x="1033.0" y="0" type="line"/>
      <point x="490.0" y="675" type="line"/>
      <point x="432.0" y="0" type="line"/>
    </contour>
  </outline>
</glyph>
<glyph name="M" format="1">
  <advance width="1978.61650591"/>
  <unicode hex="004D"/>
  <outline>
    <contour>
      <point x="186.0" y="0" type="line"/>
      <point x="314.0" y="1456" type="line"/>
      <point x="608.0" y="1456" type="line"/>
      <point x="935.0" y="558" type="line"/>
      <point x="1021.0" y="323" type="line"/>
      <point x="1150.0" y="564" type="line"/>
      <point x="1627.0" y="1456" type="line"/>
      <point x="1920.0" y="1456" type="line"/>
      <point x="1792.0" y="0" type="line"/>
      <point x="1565.0" y="0" type="line"/>
      <point x="1657.0" y="1053" type="line"/>
      <point x="1548.0" y="854" type="line"/>
      <point x="1080.0" y="0" type="line"/>
      <point x="902.0" y="0" type="line"/>
      <point x="583.0" y="850" type="line"/>
      <point x="510.0" y="1041" type="line"/>
      <point x="419.0" y="0" type="line"/>
    </contour>
  </outline>
</glyph>
<glyph name="N" format="1">
  <advance width="1599.61650591"/>
  <unicode hex="004E"/>
  <outline>
    <contour>
      <point x="186.0" y="0" type="line"/>
      <point x="314.0" y="1456" type="line"/>
      <point x="571.0" y="1456" type="line"/>
      <point x="1110.0" y="535" type="line"/>
      <point x="1215.0" y="358" type="line"/>
      <point x="1311.0" y="1456" type="line"/>
      <point x="1541.0" y="1456" type="line"/>
      <point x="1413.0" y="0" type="line"/>
      <point x="1155.0" y="0" type="line"/>
      <point x="613.0" y="918" type="line"/>
      <point x="506.0" y="1098" type="line"/>
      <point x="410.0" y="0" type="line"/>
    </contour>
  </outline>
</glyph>
<glyph name="O" format="1">
  <advance width="1662"/>
  <unicode hex="004F"/>
  <outline>
    <contour>
      <point x="846" y="184" type="curve" smooth="yes"/>
      <point x="1155" y="184"/>
      <point x="1330" y="420"/>
      <point x="1357" y="733" type="curve" smooth="yes"/>
      <point x="1384" y="1040"/>
      <point x="1251" y="1276"/>
      <point x="946" y="1276" type="curve" smooth="yes"/>
      <point x="641" y="1276"/>
      <point x="457" y="1019"/>
      <point x="431" y="725" type="curve" smooth="yes"/>
      <point x="404" y="421"/>
      <point x="537" y="184"/>
    </contour>
    <contour>
      <point x="833" y="-23" type="curve" smooth="yes"/>
      <point x="378" y="-23"/>
      <point x="130" y="271"/>
      <point x="170" y="731" type="curve" smooth="yes"/>
      <point x="208" y="1166"/>
      <point x="509" y="1483"/>
      <point x="968" y="1483" type="curve" smooth="yes"/>
      <point x="1410" y="1483"/>
      <point x="1659" y="1182"/>
      <point x="1619" y="722" type="curve" smooth="yes"/>
      <point x="1581" y="283"/>
      <point x="1287" y="-23"/>
    </contour>
  </outline>
</glyph>
<glyph name="P" format="1">
  <advance width="1298.0"/>
  <unicode hex="0050"/>
  <outline>
    <contour>
      <point x="186.0" y="0" type="line"/>
      <point x="314.0" y="1456" type="line"/>
      <point x="715.0" y="1456" type="line" smooth="yes"/>
      <point x="1059.0" y="1456"/>
      <point x="1349.0" y="1423"/>
      <point x="1316.0" y="1048" type="curve" smooth="yes"/>
      <point x="1289.0" y="734"/>
      <point x="1047.0" y="642"/>
      <point x="701.0" y="642" type="curve" smooth="yes"/>
      <point x="484.0" y="642" type="line"/>
      <point x="434.0" y="0" type="line"/>
    </contour>
    <contour>
      <point x="503.0" y="851" type="line"/>
      <point x="714.0" y="851" type="line" smooth="yes"/>
      <point x="900.0" y="851"/>
      <point x="1039.0" y="883"/>
      <point x="1053.0" y="1048" type="curve" smooth="yes"/>
      <point x="1070.0" y="1246"/>
      <point x="920.0" y="1249"/>
      <point x="704.0" y="1249" type="curve" smooth="yes"/>
      <point x="538.0" y="1249" type="line"/>
    </contour>
  </outline>
</glyph>
<glyph name="Q" format="1">
  <advance width="1662"/>
  <unicode hex="0051"/>
  <outline>
    <contour>
      <point x="1170" y="-443" type="line"/>
      <point x="1170" y="-443"/>
      <point x="982" y="-260"/>
      <point x="877" y="-8" type="curve"/>
      <point x="1094" y="35" type="line"/>
      <point x="1160" y="-134"/>
      <point x="1317" y="-298"/>
      <point x="1317" y="-298" type="curve"/>
    </contour>
    <component base="O"/>
  </outline>
</glyph>
<glyph name="R" format="1">
  <advance width="1377.0"/>
  <unicode hex="0052"/>
  <outline>
    <contour>
      <point x="186" y="0" type="line"/>
      <point x="314" y="1456" type="line"/>
      <point x="695" y="1456" type="line" smooth="yes"/>
      <point x="937" y="1456"/>
      <point x="1346" y="1453"/>
      <point x="1311" y="1058" type="curve" smooth="yes"/>
      <point x="1297" y="901"/>
      <point x="1193" y="779"/>
      <point x="1036" y="709" type="curve"/>
      <point x="1039" y="706"/>
      <point x="1043" y="704"/>
      <point x="1046" y="701" type="curve" smooth="yes"/>
      <point x="1122" y="634"/>
      <point x="1240" y="235"/>
      <point x="1240" y="235" type="curve"/>
      <point x="1320" y="0" type="line"/>
      <point x="1052" y="0" type="line"/>
      <point x="933" y="422" type="line"/>
      <point x="890" y="570"/>
      <point x="844" y="623"/>
      <point x="706" y="623" type="curve" smooth="yes"/>
      <point x="487" y="623" type="line"/>
      <point x="432" y="0" type="line"/>
    </contour>
    <contour>
      <point x="502" y="828" type="line"/>
      <point x="717" y="828" type="line" smooth="yes"/>
      <point x="870" y="828"/>
      <point x="1039" y="874"/>
      <point x="1054" y="1045" type="curve" smooth="yes"/>
      <point x="1069" y="1211"/>
      <point x="939" y="1249"/>
      <point x="768" y="1249" type="curve" smooth="yes"/>
      <point x="539" y="1249" type="line"/>
    </contour>
  </outline>
</glyph>
<glyph name="S" format="1">
  <advance width="1254"/>
  <unicode hex="0053"/>
  <outline>
    <contour>
      <point x="633" y="-23" type="curve" smooth="yes"/>
      <point x="427" y="-23"/>
      <point x="226" y="49"/>
      <point x="138" y="144" type="curve"/>
      <point x="254" y="315" type="line"/>
      <point x="336" y="245"/>
      <point x="513" y="184"/>
      <point x="637" y="184" type="curve" smooth="yes"/>
      <point x="820" y="184"/>
      <point x="925" y="254"/>
      <point x="937" y="393" type="curve" smooth="yes"/>
      <point x="947" y="511"/>
      <point x="842" y="563"/>
      <point x="635" y="646" type="curve" smooth="yes"/>
      <point x="374" y="751"/>
      <point x="199" y="831"/>
      <point x="221" y="1080" type="curve" smooth="yes"/>
      <point x="244" y="1342"/>
      <point x="486" y="1483"/>
      <point x="766" y="1483" type="curve" smooth="yes"/>
      <point x="1035" y="1483"/>
      <point x="1156" y="1423"/>
      <point x="1256" y="1318" type="curve"/>
      <point x="1112" y="1158" type="line"/>
      <point x="1024" y="1250"/>
      <point x="892" y="1275"/>
      <point x="782" y="1275" type="curve" smooth="yes"/>
      <point x="650" y="1275"/>
      <point x="491" y="1225"/>
      <point x="479" y="1089" type="curve" smooth="yes"/>
      <point x="468" y="965"/>
      <point x="577" y="930"/>
      <point x="774" y="851" type="curve" smooth="yes"/>
      <point x="1067" y="734"/>
      <point x="1215" y="640"/>
      <point x="1193" y="389" type="curve" smooth="yes"/>
      <point x="1167" y="92"/>
      <point x="900" y="-23"/>
    </contour>
  </outline>
</glyph>
<glyph name="T" format="1">
  <advance width="1174.11015335"/>
  <unicode hex="0054"/>
  <outline>
    <contour>
      <point x="466" y="0" type="line"/>
      <point x="576" y="1249" type="line"/>
      <point x="124" y="1249" type="line"/>
      <point x="142" y="1456" type="line"/>
      <point x="1294" y="1456" type="line"/>
      <point x="1276" y="1249" type="line"/>
      <point x="817" y="1249" type="line"/>
      <point x="707" y="0" type="line"/>
    </contour>
  </outline>
</glyph>
<glyph name="U" format="1">
  <advance width="1506.48515204"/>
  <unicode hex="0055"/>
  <outline>
    <contour>
      <point x="752" y="-22" type="curve" smooth="yes"/>
      <point x="279" y="-22"/>
      <point x="187" y="240"/>
      <point x="216" y="570" type="curve" smooth="yes"/>
      <point x="294" y="1456" type="line"/>
      <point x="543" y="1456" type="line"/>
      <point x="464" y="553" type="line" smooth="yes"/>
      <point x="438" y="259"/>
      <point x="567" y="184"/>
      <point x="770" y="184" type="curve" smooth="yes"/>
      <point x="973" y="184"/>
      <point x="1116" y="259"/>
      <point x="1142" y="553" type="curve" smooth="yes"/>
      <point x="1221" y="1456" type="line"/>
      <point x="1470" y="1456" type="line"/>
      <point x="1392" y="570" type="line" smooth="yes"/>
      <point x="1363" y="240"/>
      <point x="1225" y="-22"/>
    </contour>
  </outline>
</glyph>
<glyph name="V" format="1">
  <advance width="1378.0"/>
  <unicode hex="0056"/>
  <outline>
    <contour>
      <point x="568.383494094" y="0" type="line"/>
      <point x="133.383494094" y="1456" type="line"/>
      <point x="405.383494094" y="1456" type="line"/>
      <point x="649.383494094" y="572" type="line"/>
      <point x="722.383494094" y="311" type="line"/>
      <point x="840.383494094" y="571" type="line"/>
      <point x="1246.38349409" y="1456" type="line"/>
      <point x="1499.38349409" y="1456" type="line"/>
      <point x="810.383494094" y="0" type="line"/>
    </contour>
  </outline>
</glyph>
<glyph name="W" format="1">
  <advance width="2104.0"/>
  <unicode hex="0057"/>
  <outline>
    <contour>
      <point x="436.383494094" y="0" type="line"/>
      <point x="142.383494094" y="1456" type="line"/>
      <point x="404.383494094" y="1456" type="line"/>
      <point x="561.383494094" y="606" type="line"/>
      <point x="616.383494094" y="312" type="line"/>
      <point x="731.383494094" y="605" type="line"/>
      <point x="1069.38349409" y="1456" type="line"/>
      <point x="1302.38349409" y="1456" type="line"/>
      <point x="1497.38349409" y="596" type="line"/>
      <point x="1562.38349409" y="308" type="line"/>
      <point x="1663.38349409" y="597" type="line"/>
      <point x="1962.38349409" y="1456" type="line"/>
      <point x="2216.38349409" y="1456" type="line"/>
      <point x="1667.38349409" y="0" type="line"/>
      <point x="1393.38349409" y="0" type="line"/>
      <point x="1151.38349409" y="1142" type="line"/>
      <point x="703.383494094" y="0" type="line"/>
    </contour>
  </outline>
</glyph>
<glyph name="X" format="1">
  <advance width="1376.0"/>
  <unicode hex="0058"/>
  <outline>
    <contour>
      <point x="1068.0" y="0" type="line"/>
      <point x="736.0" y="539" type="line"/>
      <point x="297.0" y="0" type="line"/>
      <point x="9.0" y="0" type="line"/>
      <point x="614.0" y="737" type="line"/>
      <point x="171.0" y="1456" type="line"/>
      <point x="469.0" y="1456" type="line"/>
      <point x="784.0" y="946" type="line"/>
      <point x="1203.0" y="1456" type="line"/>
      <point x="1483.0" y="1456" type="line"/>
      <point x="907.0" y="748" type="line"/>
      <point x="1367.0" y="0" type="line"/>
    </contour>
  </outline>
</glyph>
<glyph name="Y" format="1">
  <advance width="1303.0"/>
  <unicode hex="0059"/>
  <outline>
    <contour>
      <point x="526" y="0" type="line"/>
      <point x="577" y="582" type="line"/>
      <point x="119" y="1456" type="line"/>
      <point x="393" y="1456" type="line"/>
      <point x="721" y="797" type="line"/>
      <point x="721" y="797"/>
      <point x="1089" y="1343"/>
      <point x="1164" y="1456" type="curve"/>
      <point x="1444" y="1456" type="line"/>
      <point x="818" y="584" type="line"/>
      <point x="767" y="0" type="line"/>
    </contour>
  </outline>
</glyph>
<glyph name="bracketleft" format="1">
  <advance width="628"/>
  <unicode hex="005B"/>
  <outline>
    <contour>
      <point x="73" y="-211" type="line"/>
      <point x="219" y="1456" type="line"/>
      <point x="638" y="1456" type="line"/>
      <point x="622" y="1276" type="line"/>
      <point x="441" y="1276" type="line"/>
      <point x="327" y="-31" type="line"/>
      <point x="509" y="-31" type="line"/>
      <point x="493" y="-211" type="line"/>
    </contour>
  </outline>
</glyph>
<glyph name="bracketright" format="1">
  <advance width="628"/>
  <unicode hex="005D"/>
  <outline>
    <contour>
      <point x="90" y="-211" type="line"/>
      <point x="106" y="-31" type="line"/>
      <point x="282" y="-31" type="line"/>
      <point x="396" y="1276" type="line"/>
      <point x="220" y="1276" type="line"/>
      <point x="236" y="1456" type="line"/>
      <point x="651" y="1456" type="line"/>
      <point x="505" y="-211" type="line"/>
    </contour>
  </outline>
</glyph>
<glyph name="underscore" format="1">
  <advance width="998"/>
  <unicode hex="005F"/>
  <outline>
    <contour>
      <point x="-29" y="-257" type="line"/>
      <point x="-13" y="-71" type="line"/>
      <point x="1009" y="-71" type="line"/>
      <point x="993" y="-257" type="line"/>
    </contour>
  </outline>
</glyph>
<glyph name="grave" format="1">
  <advance width="607"/>
  <unicode hex="0060"/>
  <outline>
    <contour>
      <point x="441" y="1168" type="line"/>
      <point x="121" y="1483" type="line"/>
      <point x="424" y="1483" type="line"/>
      <point x="655" y="1168" type="line"/>
    </contour>
  </outline>
</glyph>
<glyph name="a" format="1">
  <advance width="1270"/>
  <unicode hex="0061"/>
  <outline>
    <contour>
      <point x="591" y="-23" type="curve" smooth="yes"/>
      <point x="252" y="-23"/>
      <point x="122" y="254"/>
      <point x="144" y="504" type="curve" smooth="yes"/>
      <point x="168" y="781"/>
      <point x="335" y="1052"/>
      <point x="663" y="1052" type="curve" smooth="yes"/>
      <point x="817" y="1052"/>
      <point x="950" y="972"/>
      <point x="985" y="835" type="curve"/>
      <point x="993" y="1026" type="line"/>
      <point x="1224" y="1026" type="line"/>
      <point x="1134" y="0" type="line"/>
      <point x="898" y="0" type="line"/>
      <point x="922" y="198" type="line"/>
      <point x="868" y="64"/>
      <point x="754" y="-23"/>
    </contour>
    <contour>
      <point x="699" y="861" type="curve" smooth="yes"/>
      <point x="501" y="861"/>
      <point x="398" y="717"/>
      <point x="380" y="515" type="curve" smooth="yes"/>
      <point x="363" y="317"/>
      <point x="435" y="168"/>
      <point x="639" y="168" type="curve" smooth="yes"/>
      <point x="843" y="168"/>
      <point x="939" y="318"/>
      <point x="956" y="515" type="curve" smooth="yes"/>
      <point x="974" y="717"/>
      <point x="897" y="861"/>
    </contour>
  </outline>
</glyph>
<glyph name="b" format="1">
  <advance width="1277"/>
  <unicode hex="0062"/>
  <outline>
    <contour>
      <point x="715" y="-23" type="curve" smooth="yes"/>
      <point x="456" y="-23"/>
      <point x="395" y="176"/>
      <point x="395" y="176" type="curve"/>
      <point x="383" y="0" type="line"/>
      <point x="142" y="0" type="line"/>
      <point x="142" y="0"/>
      <point x="162" y="133"/>
      <point x="174" y="272" type="curve" smooth="yes"/>
      <point x="278" y="1463" type="line"/>
      <point x="513" y="1463" type="line"/>
      <point x="461" y="867" type="line"/>
      <point x="484" y="919"/>
      <point x="600" y="1052"/>
      <point x="800" y="1052" type="curve" smooth="yes"/>
      <point x="1086" y="1052"/>
      <point x="1247" y="802"/>
      <point x="1221" y="508" type="curve" smooth="yes"/>
      <point x="1192" y="182"/>
      <point x="955" y="-23"/>
    </contour>
    <contour>
      <point x="677" y="168" type="curve" smooth="yes"/>
      <point x="867" y="168"/>
      <point x="959" y="328"/>
      <point x="975" y="515" type="curve" smooth="yes"/>
      <point x="992" y="707"/>
      <point x="921" y="861"/>
      <point x="737" y="861" type="curve" smooth="yes"/>
      <point x="553" y="861"/>
      <point x="434" y="707"/>
      <point x="417" y="515" type="curve" smooth="yes"/>
      <point x="401" y="328"/>
      <point x="487" y="168"/>
    </contour>
  </outline>
</glyph>
<glyph name="c" format="1">
  <advance width="1057"/>
  <unicode hex="0063"/>
  <outline>
    <contour>
      <point x="627" y="-23" type="curve" smooth="yes"/>
      <point x="288" y="-23"/>
      <point x="119" y="219"/>
      <point x="144" y="506" type="curve" smooth="yes"/>
      <point x="170" y="804"/>
      <point x="385" y="1052"/>
      <point x="715" y="1052" type="curve" smooth="yes"/>
      <point x="871" y="1052"/>
      <point x="999" y="1006"/>
      <point x="1076" y="917" type="curve"/>
      <point x="965" y="764" type="line"/>
      <point x="911" y="816"/>
      <point x="839" y="861"/>
      <point x="726" y="861" type="curve" smooth="yes"/>
      <point x="529" y="861"/>
      <point x="408" y="725"/>
      <point x="389" y="507" type="curve" smooth="yes"/>
      <point x="371" y="302"/>
      <point x="474" y="168"/>
      <point x="671" y="168" type="curve" smooth="yes"/>
      <point x="804" y="168"/>
      <point x="898" y="232"/>
      <point x="944" y="264" type="curve"/>
      <point x="1001" y="91" type="line"/>
      <point x="885" y="14"/>
      <point x="769" y="-23"/>
    </contour>
  </outline>
</glyph>
<glyph name="d" format="1">
  <advance width="1251"/>
  <unicode hex="0064"/>
  <outline>
    <contour>
      <point x="565" y="-23" type="curve" smooth="yes"/>
      <point x="303" y="-23"/>
      <point x="115" y="182"/>
      <point x="144" y="508" type="curve" smooth="yes"/>
      <point x="170" y="802"/>
      <point x="355" y="1052"/>
      <point x="676" y="1052" type="curve" smooth="yes"/>
      <point x="837" y="1052"/>
      <point x="925" y="964"/>
      <point x="950" y="910" type="curve"/>
      <point x="998" y="1463" type="line"/>
      <point x="1233" y="1463" type="line"/>
      <point x="1129" y="272" type="line" smooth="yes"/>
      <point x="1126" y="243"/>
      <point x="1125" y="215"/>
      <point x="1113" y="0" type="curve"/>
      <point x="872" y="0" type="line"/>
      <point x="882" y="139" type="line"/>
      <point x="852" y="78"/>
      <point x="753" y="-23"/>
    </contour>
    <contour>
      <point x="628" y="168" type="curve" smooth="yes"/>
      <point x="818" y="168"/>
      <point x="906" y="328"/>
      <point x="922" y="515" type="curve" smooth="yes"/>
      <point x="939" y="707"/>
      <point x="872" y="861"/>
      <point x="688" y="861" type="curve" smooth="yes"/>
      <point x="504" y="861"/>
      <point x="409" y="707"/>
      <point x="392" y="515" type="curve" smooth="yes"/>
      <point x="376" y="328"/>
      <point x="438" y="168"/>
    </contour>
  </outline>
</glyph>
<glyph name="e" format="1">
  <advance width="1183"/>
  <unicode hex="0065"/>
  <outline>
    <contour>
      <point x="665" y="-23" type="curve" smooth="yes"/>
      <point x="339" y="-23"/>
      <point x="117" y="197"/>
      <point x="145" y="512" type="curve" smooth="yes"/>
      <point x="170" y="803"/>
      <point x="380" y="1052"/>
      <point x="707" y="1052" type="curve" smooth="yes"/>
      <point x="1033" y="1052"/>
      <point x="1159" y="818"/>
      <point x="1133" y="523" type="curve" smooth="yes"/>
      <point x="1132" y="512"/>
      <point x="1129" y="494"/>
      <point x="1124" y="478" type="curve"/>
      <point x="390" y="478" type="line"/>
      <point x="382" y="245"/>
      <point x="510" y="168"/>
      <point x="693" y="168" type="curve" smooth="yes"/>
      <point x="836" y="168"/>
      <point x="976" y="233"/>
      <point x="1030" y="263" type="curve"/>
      <point x="1075" y="87" type="line"/>
      <point x="1017" y="52"/>
      <point x="895" y="-23"/>
    </contour>
    <contour>
      <point x="408" y="636" type="curve"/>
      <point x="937" y="636" type="line"/>
      <point x="930" y="792"/>
      <point x="829" y="869"/>
      <point x="703" y="869" type="curve" smooth="yes"/>
      <point x="555" y="869"/>
      <point x="451" y="771"/>
    </contour>
  </outline>
</glyph>
<glyph name="f" format="1">
  <advance width="750.106983268"/>
  <unicode hex="0066"/>
  <outline>
    <contour>
      <point x="244.940159941" y="0.0" type="line"/>
      <point x="320.940159941" y="868.0" type="line"/>
      <point x="131.940159941" y="868.0" type="line"/>
      <point x="145.940159941" y="1026.0" type="line"/>
      <point x="334.940159941" y="1026.0" type="line"/>
      <point x="344.0" y="1109.0" type="line" smooth="yes"/>
      <point x="375.0" y="1395.0"/>
      <point x="449.940159941" y="1484.0"/>
      <point x="799.940159941" y="1484.0" type="curve" smooth="yes"/>
      <point x="851.940159941" y="1484.0" type="line"/>
      <point x="827.940159941" y="1301.0" type="line"/>
      <point x="642.940159941" y="1301.0"/>
      <point x="596.0" y="1298"/>
      <point x="575.0" y="1079" type="curve" smooth="yes"/>
      <point x="570.0" y="1026.0" type="line"/>
      <point x="803.940159941" y="1026.0" type="line"/>
      <point x="789.940159941" y="868.0" type="line"/>
      <point x="555.940159941" y="868.0" type="line"/>
      <point x="479.940159941" y="0.0" type="line"/>
    </contour>
  </outline>
</glyph>
<glyph name="g" format="1">
  <advance width="1233.11848816"/>
  <unicode hex="0067"/>
  <outline>
    <contour>
      <point x="140.881856936" y="513" type="curve" smooth="yes"/>
      <point x="165.881856936" y="801"/>
      <point x="366" y="1052"/>
      <point x="675" y="1052" type="curve" smooth="yes"/>
      <point x="824" y="1052"/>
      <point x="921" y="952"/>
      <point x="944" y="896" type="curve"/>
      <point x="957.881856936" y="1026" type="line"/>
      <point x="1206.88185694" y="1026" type="line"/>
      <point x="1206.88185694" y="1026"/>
      <point x="1174.88185694" y="872"/>
      <point x="1159.88185694" y="695" type="curve" smooth="yes"/>
      <point x="1110" y="130" type="line" smooth="yes"/>
      <point x="1087" y="-129"/>
      <point x="971" y="-433"/>
      <point x="529" y="-433" type="curve" smooth="yes"/>
      <point x="343" y="-433"/>
      <point x="215" y="-389"/>
      <point x="148" y="-350" type="curve"/>
      <point x="198" y="-152" type="line"/>
      <point x="243" y="-178"/>
      <point x="342" y="-239"/>
      <point x="531" y="-239" type="curve" smooth="yes"/>
      <point x="722" y="-239"/>
      <point x="853" y="-156"/>
      <point x="869" y="28" type="curve" smooth="yes"/>
      <point x="878.881856936" y="131" type="line"/>
      <point x="853.881856936" y="90"/>
      <point x="758" y="10"/>
      <point x="589" y="10" type="curve" smooth="yes"/>
      <point x="300" y="10"/>
      <point x="113.881856936" y="205"/>
    </contour>
    <contour>
      <point x="691" y="862" type="curve" smooth="yes"/>
      <point x="508" y="862"/>
      <point x="403.881856936" y="700"/>
      <point x="387.881856936" y="514" type="curve" smooth="yes"/>
      <point x="369.881856936" y="312"/>
      <point x="431" y="189"/>
      <point x="628" y="189" type="curve" smooth="yes"/>
      <point x="832" y="189"/>
      <point x="908.881856936" y="350"/>
      <point x="923.881856936" y="520" type="curve" smooth="yes"/>
      <point x="940.881856936" y="714"/>
      <point x="868" y="862"/>
    </contour>
  </outline>
</glyph>
<glyph name="h" format="1">
  <advance width="1185"/>
  <unicode hex="0068"/>
  <outline>
    <contour>
      <point x="144" y="0" type="line"/>
      <point x="272" y="1463" type="line"/>
      <point x="508" y="1463" type="line"/>
      <point x="458" y="888" type="line"/>
      <point x="522" y="990"/>
      <point x="657" y="1052"/>
      <point x="768" y="1052" type="curve" smooth="yes"/>
      <point x="1096" y="1052"/>
      <point x="1123" y="777"/>
      <point x="1106" y="580" type="curve" smooth="yes"/>
      <point x="1055" y="0" type="line"/>
      <point x="818" y="0" type="line"/>
      <point x="869" y="586" type="line" smooth="yes"/>
      <point x="886" y="785"/>
      <point x="844" y="861"/>
      <point x="720" y="861" type="curve" smooth="yes"/>
      <point x="580" y="861"/>
      <point x="445" y="748"/>
      <point x="434" y="619" type="curve" smooth="yes"/>
      <point x="380" y="0" type="line"/>
    </contour>
  </outline>
</glyph>
<glyph name="i" format="1">
  <advance width="517"/>
  <unicode hex="0069"/>
  <outline>
    <contour>
      <point x="161" y="0" type="line"/>
      <point x="251" y="1026" type="line"/>
      <point x="480" y="1026" type="line"/>
      <point x="390" y="0" type="line"/>
    </contour>
    <contour>
      <point x="268" y="1226" type="line"/>
      <point x="287" y="1435" type="line"/>
      <point x="516" y="1435" type="line"/>
      <point x="497" y="1226" type="line"/>
    </contour>
  </outline>
</glyph>
<glyph name="j" format="1">
  <advance width="571.745246943"/>
  <unicode hex="006A"/>
  <outline>
    <contour>
      <point x="49.2914791024" y="-362" type="curve" smooth="yes"/>
      <point x="1.2914791024" y="-362"/>
      <point x="-45.7085208976" y="-360"/>
      <point x="-104.708520898" y="-351" type="curve"/>
      <point x="-73.7085208976" y="-182" type="line"/>
      <point x="-40.7085208976" y="-186"/>
      <point x="-12.7085208976" y="-188"/>
      <point x="13.2914791024" y="-188" type="curve" smooth="yes"/>
      <point x="148.291479102" y="-188"/>
      <point x="193.291479102" y="-125"/>
      <point x="209.291479102" y="62" type="curve" smooth="yes"/>
      <point x="294.291479102" y="1026" type="line"/>
      <point x="529.291479102" y="1026" type="line"/>
      <point x="442.291479102" y="39" type="line" smooth="yes"/>
      <point x="422.291479102" y="-190"/>
      <point x="345.291479102" y="-362"/>
    </contour>
    <contour>
      <point x="311.291479102" y="1226" type="line"/>
      <point x="330.291479102" y="1435" type="line"/>
      <point x="565.291479102" y="1435" type="line"/>
      <point x="546.291479102" y="1226" type="line"/>
    </contour>
  </outline>
</glyph>
<glyph name="k" format="1">
  <advance width="1072"/>
  <unicode hex="006B"/>
  <outline>
    <contour>
      <point x="144" y="0" type="line"/>
      <point x="272" y="1463" type="line"/>
      <point x="507" y="1463" type="line"/>
      <point x="436" y="646" type="line"/>
      <point x="838" y="1026" type="line"/>
      <point x="1163" y="1026" type="line"/>
      <point x="604" y="539" type="line"/>
      <point x="1106" y="0" type="line"/>
      <point x="793" y="0" type="line"/>
      <point x="416" y="424" type="line"/>
      <point x="379" y="0" type="line"/>
    </contour>
  </outline>
</glyph>
<glyph name="l" format="1">
  <advance width="536.004085262"/>
  <unicode hex="006C"/>
  <outline>
    <contour>
      <point x="162.0" y="0" type="line"/>
      <point x="290.0" y="1463" type="line"/>
      <point x="524.0" y="1463" type="line"/>
      <point x="396.0" y="0" type="line"/>
    </contour>
  </outline>
</glyph>
<glyph name="m" format="1">
  <advance width="1836"/>
  <unicode hex="006D"/>
  <outline>
    <contour>
      <point x="161" y="0" type="line"/>
      <point x="223" y="705" type="line" smooth="yes"/>
      <point x="237" y="868"/>
      <point x="234" y="1026"/>
      <point x="234" y="1026" type="curve"/>
      <point x="483" y="1026" type="line"/>
      <point x="459" y="840" type="line"/>
      <point x="510" y="951"/>
      <point x="668" y="1052"/>
      <point x="805" y="1052" type="curve" smooth="yes"/>
      <point x="934" y="1052"/>
      <point x="1035" y="977"/>
      <point x="1071" y="830" type="curve"/>
      <point x="1154" y="962"/>
      <point x="1297" y="1052"/>
      <point x="1453" y="1052" type="curve" smooth="yes"/>
      <point x="1675" y="1052"/>
      <point x="1783" y="885"/>
      <point x="1761" y="629" type="curve" smooth="yes"/>
      <point x="1706" y="0" type="line"/>
      <point x="1470" y="0" type="line"/>
      <point x="1518" y="553" type="line" smooth="yes"/>
      <point x="1528" y="669"/>
      <point x="1543" y="861"/>
      <point x="1378" y="861" type="curve" smooth="yes"/>
      <point x="1221" y="861"/>
      <point x="1120" y="719"/>
      <point x="1108" y="582" type="curve" smooth="yes"/>
      <point x="1057" y="0" type="line"/>
      <point x="821" y="0" type="line"/>
      <point x="876" y="628" type="line" smooth="yes"/>
      <point x="885" y="729"/>
      <point x="873" y="861"/>
      <point x="736" y="861" type="curve" smooth="yes"/>
      <point x="597" y="861"/>
      <point x="462" y="745"/>
      <point x="451" y="620" type="curve" smooth="yes"/>
      <point x="397" y="0" type="line"/>
    </contour>
  </outline>
</glyph>
<glyph name="n" format="1">
  <advance width="1199"/>
  <unicode hex="006E"/>
  <outline>
    <contour>
      <point x="162" y="0" type="line"/>
      <point x="219" y="656" type="line" smooth="yes"/>
      <point x="239" y="883"/>
      <point x="234" y="1026"/>
      <point x="234" y="1026" type="curve"/>
      <point x="483" y="1026" type="line"/>
      <point x="459" y="839" type="line"/>
      <point x="520" y="965"/>
      <point x="669" y="1052"/>
      <point x="816" y="1052" type="curve" smooth="yes"/>
      <point x="1033" y="1052"/>
      <point x="1151" y="928"/>
      <point x="1120" y="580" type="curve" smooth="yes"/>
      <point x="1069" y="0" type="line"/>
      <point x="833" y="0" type="line"/>
      <point x="885" y="592" type="line" smooth="yes"/>
      <point x="902" y="781"/>
      <point x="869" y="861"/>
      <point x="727" y="861" type="curve" smooth="yes"/>
      <point x="620" y="861"/>
      <point x="465" y="764"/>
      <point x="452" y="620" type="curve" smooth="yes"/>
      <point x="398" y="0" type="line"/>
    </contour>
  </outline>
</glyph>
<glyph name="o" format="1">
  <advance width="1268.1750222"/>
  <unicode hex="006F"/>
  <outline>
    <contour>
      <point x="649.881684389" y="168" type="curve" smooth="yes"/>
      <point x="853.881684389" y="168"/>
      <point x="950.881684389" y="328"/>
      <point x="966.881684389" y="515" type="curve" smooth="yes"/>
      <point x="983.881684389" y="707"/>
      <point x="907.881684389" y="861"/>
      <point x="709.881684389" y="861" type="curve" smooth="yes"/>
      <point x="511.881684389" y="861"/>
      <point x="407.881684389" y="707"/>
      <point x="390.881684389" y="515" type="curve" smooth="yes"/>
      <point x="374.881684389" y="328"/>
      <point x="445.881684389" y="168"/>
    </contour>
    <contour>
      <point x="635.881684389" y="-23" type="curve" smooth="yes"/>
      <point x="288.881684389" y="-23"/>
      <point x="119.881684389" y="222"/>
      <point x="144.881684389" y="513" type="curve" smooth="yes"/>
      <point x="170.881684389" y="805"/>
      <point x="384.881684389" y="1052"/>
      <point x="729.881684389" y="1052" type="curve" smooth="yes"/>
      <point x="1081.88168439" y="1052"/>
      <point x="1238.88168439" y="807"/>
      <point x="1212.88168439" y="511" type="curve" smooth="yes"/>
      <point x="1187.88168439" y="225"/>
      <point x="975.881684389" y="-23"/>
    </contour>
  </outline>
</glyph>
<glyph name="p" format="1">
  <advance width="1262"/>
  <unicode hex="0070"/>
  <outline>
    <contour>
      <point x="124" y="-400" type="line"/>
      <point x="220" y="692" type="line" smooth="yes"/>
      <point x="229" y="793"/>
      <point x="230" y="919"/>
      <point x="232" y="1026" type="curve"/>
      <point x="482" y="1026" type="line"/>
      <point x="469" y="873" type="line"/>
      <point x="493" y="944"/>
      <point x="624" y="1052"/>
      <point x="805" y="1052" type="curve" smooth="yes"/>
      <point x="1085" y="1052"/>
      <point x="1233" y="809"/>
      <point x="1208" y="525" type="curve" smooth="yes"/>
      <point x="1183" y="240"/>
      <point x="991" y="-23"/>
      <point x="699" y="-23" type="curve" smooth="yes"/>
      <point x="522" y="-23"/>
      <point x="416" y="85"/>
      <point x="405" y="145" type="curve"/>
      <point x="357" y="-400" type="line"/>
    </contour>
    <contour>
      <point x="664" y="168" type="curve" smooth="yes"/>
      <point x="854" y="168"/>
      <point x="946" y="328"/>
      <point x="962" y="515" type="curve" smooth="yes"/>
      <point x="979" y="707"/>
      <point x="909" y="861"/>
      <point x="725" y="861" type="curve" smooth="yes"/>
      <point x="541" y="861"/>
      <point x="443" y="707"/>
      <point x="426" y="515" type="curve" smooth="yes"/>
      <point x="410" y="328"/>
      <point x="474" y="168"/>
    </contour>
  </outline>
</glyph>
<glyph name="q" format="1">
  <advance width="1245"/>
  <unicode hex="0071"/>
  <outline>
    <contour>
      <point x="835" y="-400" type="line"/>
      <point x="879" y="95" type="line"/>
      <point x="795" y="25"/>
      <point x="686" y="-23"/>
      <point x="579" y="-23" type="curve" smooth="yes"/>
      <point x="257" y="-23"/>
      <point x="121" y="240"/>
      <point x="146" y="525" type="curve" smooth="yes"/>
      <point x="171" y="809"/>
      <point x="365" y="1052"/>
      <point x="677" y="1052" type="curve" smooth="yes"/>
      <point x="776" y="1052"/>
      <point x="880" y="1006"/>
      <point x="952" y="910" type="curve"/>
      <point x="962" y="1026" type="line"/>
      <point x="1203" y="1026" type="line"/>
      <point x="1188" y="934"/>
      <point x="1176" y="828"/>
      <point x="1168" y="742" type="curve" smooth="yes"/>
      <point x="1068" y="-400" type="line"/>
    </contour>
    <contour>
      <point x="628" y="168" type="curve" smooth="yes"/>
      <point x="818" y="168"/>
      <point x="912" y="328"/>
      <point x="928" y="515" type="curve" smooth="yes"/>
      <point x="945" y="707"/>
      <point x="873" y="861"/>
      <point x="689" y="861" type="curve" smooth="yes"/>
      <point x="505" y="861"/>
      <point x="409" y="707"/>
      <point x="392" y="515" type="curve" smooth="yes"/>
      <point x="376" y="328"/>
      <point x="438" y="168"/>
    </contour>
  </outline>
</glyph>
<glyph name="s" format="1">
  <advance width="1022"/>
  <unicode hex="0073"/>
  <outline>
    <contour>
      <point x="536" y="-23" type="curve" smooth="yes"/>
      <point x="335" y="-23"/>
      <point x="188" y="36"/>
      <point x="118" y="98" type="curve"/>
      <point x="189" y="273" type="line"/>
      <point x="261" y="219"/>
      <point x="394" y="168"/>
      <point x="519" y="168" type="curve" smooth="yes"/>
      <point x="632" y="168"/>
      <point x="713" y="201"/>
      <point x="721" y="289" type="curve" smooth="yes"/>
      <point x="727" y="355"/>
      <point x="691" y="374"/>
      <point x="533" y="421" type="curve" smooth="yes"/>
      <point x="333" y="481"/>
      <point x="160" y="529"/>
      <point x="180" y="756" type="curve" smooth="yes"/>
      <point x="199" y="969"/>
      <point x="393" y="1050"/>
      <point x="593" y="1050" type="curve" smooth="yes"/>
      <point x="731" y="1050"/>
      <point x="870" y="1012"/>
      <point x="960" y="951" type="curve"/>
      <point x="883" y="790" type="line"/>
      <point x="775" y="839"/>
      <point x="675" y="862"/>
      <point x="596" y="862" type="curve" smooth="yes"/>
      <point x="494" y="862"/>
      <point x="428" y="825"/>
      <point x="422" y="760" type="curve" smooth="yes"/>
      <point x="417" y="690"/>
      <point x="466" y="669"/>
      <point x="626" y="618" type="curve" smooth="yes"/>
      <point x="818" y="557"/>
      <point x="981" y="525"/>
      <point x="961" y="293" type="curve" smooth="yes"/>
      <point x="940" y="58"/>
      <point x="712" y="-23"/>
    </contour>
  </outline>
</glyph>
<glyph name="t" format="1">
  <advance width="795"/>
  <unicode hex="0074"/>
  <outline>
    <contour>
      <point x="739" y="1" type="line"/>
      <point x="693" y="1" type="line" smooth="yes"/>
      <point x="429" y="1"/>
      <point x="223" y="4"/>
      <point x="256" y="378" type="curve" smooth="yes"/>
      <point x="299" y="868" type="line"/>
      <point x="130" y="868" type="line"/>
      <point x="144" y="1026" type="line"/>
      <point x="321" y="1026" type="line"/>
      <point x="343" y="1271" type="line"/>
      <point x="576" y="1340" type="line"/>
      <point x="548" y="1026" type="line"/>
      <point x="813" y="1026" type="line"/>
      <point x="799" y="868" type="line"/>
      <point x="534" y="868" type="line"/>
      <point x="490" y="360" type="line" smooth="yes"/>
      <point x="475" y="191"/>
      <point x="525" y="182"/>
      <point x="755" y="182" type="curve"/>
    </contour>
  </outline>
</glyph>
<glyph name="u" format="1">
  <advance width="1188"/>
  <unicode hex="0075"/>
  <outline>
    <contour>
      <point x="509" y="-23" type="curve" smooth="yes"/>
      <point x="281" y="-23"/>
      <point x="148" y="138"/>
      <point x="169" y="379" type="curve" smooth="yes"/>
      <point x="226" y="1026" type="line"/>
      <point x="460" y="1026" type="line"/>
      <point x="404" y="382" type="line" smooth="yes"/>
      <point x="391" y="235"/>
      <point x="466" y="168"/>
      <point x="593" y="168" type="curve" smooth="yes"/>
      <point x="745" y="168"/>
      <point x="830" y="244"/>
      <point x="845" y="412" type="curve" smooth="yes"/>
      <point x="899" y="1026" type="line"/>
      <point x="1135" y="1026" type="line"/>
      <point x="1069" y="272" type="line" smooth="yes"/>
      <point x="1064" y="213"/>
      <point x="1056" y="0"/>
      <point x="1056" y="0" type="curve"/>
      <point x="813" y="0" type="line"/>
      <point x="825" y="174" type="line"/>
      <point x="800" y="117"/>
      <point x="706" y="-23"/>
    </contour>
  </outline>
</glyph>
<glyph name="w" format="1">
  <advance width="1673.0"/>
  <unicode hex="0077"/>
  <outline>
    <contour>
      <point x="383.763368778" y="0" type="line"/>
      <point x="105.763368778" y="1026" type="line"/>
      <point x="358.763368778" y="1026" type="line"/>
      <point x="494.763368778" y="447" type="line"/>
      <point x="531.763368778" y="288" type="line"/>
      <point x="596.763368778" y="441" type="line"/>
      <point x="844.763368778" y="1026" type="line"/>
      <point x="1050.76336878" y="1026" type="line"/>
      <point x="1191.76336878" y="419" type="line"/>
      <point x="1222.76336878" y="286" type="line"/>
      <point x="1274.76336878" y="415" type="line"/>
      <point x="1525.76336878" y="1026" type="line"/>
      <point x="1746.76336878" y="1026" type="line"/>
      <point x="1278.76336878" y="0" type="line"/>
      <point x="1078.76336878" y="0" type="line"/>
      <point x="935.763368778" y="586" type="line"/>
      <point x="902.763368778" y="724" type="line"/>
      <point x="841.763368778" y="586" type="line"/>
      <point x="584.763368778" y="0" type="line"/>
    </contour>
  </outline>
</glyph>
<glyph name="x" format="1">
  <advance width="1044.0"/>
  <unicode hex="0078"/>
  <outline>
    <contour>
      <point x="20.0" y="0" type="line"/>
      <point x="435.0" y="502" type="line"/>
      <point x="128.0" y="1026" type="line"/>
      <point x="389.0" y="1026" type="line"/>
      <point x="586.0" y="685" type="line"/>
      <point x="867.0" y="1026" type="line"/>
      <point x="1111.0" y="1026" type="line"/>
      <point x="705.0" y="532" type="line"/>
      <point x="1024.0" y="0" type="line"/>
      <point x="764.0" y="0" type="line"/>
      <point x="555.0" y="349" type="line"/>
      <point x="268.0" y="0" type="line"/>
    </contour>
  </outline>
</glyph>
<glyph name="y" format="1">
  <advance width="1129"/>
  <unicode hex="0079"/>
  <outline>
    <contour>
      <point x="206" y="-406" type="curve"/>
      <point x="121" y="-246" type="line"/>
      <point x="352" y="-185"/>
      <point x="437" y="-95"/>
      <point x="469" y="-13" type="curve" smooth="yes"/>
      <point x="482" y="21" type="line"/>
      <point x="132" y="1026" type="line"/>
      <point x="384" y="1026" type="line"/>
      <point x="616" y="271" type="line"/>
      <point x="958" y="1026" type="line"/>
      <point x="1201" y="1026" type="line"/>
      <point x="679" y="-49" type="line" smooth="yes"/>
      <point x="575" y="-265"/>
      <point x="422" y="-364"/>
    </contour>
  </outline>
</glyph>
<glyph name="z" format="1">
  <advance width="985.228011371"/>
  <unicode hex="007A"/>
  <outline>
    <contour>
      <point x="109.228011371" y="0" type="line"/>
      <point x="120.228011371" y="125" type="line"/>
      <point x="659.228011371" y="837" type="line"/>
      <point x="179.228011371" y="837" type="line"/>
      <point x="196.228011371" y="1026" type="line"/>
      <point x="978.228011371" y="1026" type="line"/>
      <point x="967.228011371" y="903" type="line"/>
      <point x="429.228011371" y="188" type="line"/>
      <point x="916.228011371" y="188" type="line"/>
      <point x="921.228011371" y="0" type="line"/>
    </contour>
  </outline>
</glyph>
<glyph name="braceleft" format="1">
  <advance width="627"/>
  <unicode hex="007B"/>
  <outline>
    <contour>
      <point x="566" y="-187" type="line"/>
      <point x="243" y="-187"/>
      <point x="197" y="-40"/>
      <point x="215" y="169" type="curve" smooth="yes"/>
      <point x="233" y="374" type="line" smooth="yes"/>
      <point x="246" y="522"/>
      <point x="205" y="566"/>
      <point x="102" y="566" type="curve"/>
      <point x="117" y="734" type="line"/>
      <point x="222" y="734"/>
      <point x="269" y="791"/>
      <point x="279" y="908" type="curve" smooth="yes"/>
      <point x="297" y="1118" type="line" smooth="yes"/>
      <point x="314" y="1314"/>
      <point x="388" y="1483"/>
      <point x="713" y="1483" type="curve"/>
      <point x="699" y="1297" type="line"/>
      <point x="561" y="1297"/>
      <point x="548" y="1202"/>
      <point x="535" y="1054" type="curve" smooth="yes"/>
      <point x="515" y="834" type="line" smooth="yes"/>
      <point x="507" y="739"/>
      <point x="432" y="675"/>
      <point x="357" y="642" type="curve"/>
      <point x="427" y="596"/>
      <point x="488" y="540"/>
      <point x="476" y="390" type="curve"/>
      <point x="454" y="131" type="line"/>
      <point x="444" y="7"/>
      <point x="506" y="-1"/>
      <point x="582" y="-2" type="curve"/>
    </contour>
  </outline>
</glyph>
<glyph name="asciitilde" format="1">
  <advance width="1459"/>
  <unicode hex="007E"/>
  <outline>
    <contour>
      <point x="387" y="343" type="curve"/>
      <point x="212" y="431" type="line"/>
      <point x="255" y="583"/>
      <point x="387" y="726"/>
      <point x="565" y="726" type="curve" smooth="yes"/>
      <point x="652" y="726"/>
      <point x="756" y="675"/>
      <point x="842" y="633" type="curve"/>
      <point x="842" y="633"/>
      <point x="959" y="576"/>
      <point x="988" y="576" type="curve" smooth="yes"/>
      <point x="1048" y="576"/>
      <point x="1106" y="663"/>
      <point x="1135" y="754" type="curve"/>
      <point x="1330" y="693" type="line"/>
      <point x="1275" y="515"/>
      <point x="1148" y="383"/>
      <point x="974" y="383" type="curve" smooth="yes"/>
      <point x="910" y="383"/>
      <point x="828" y="421"/>
      <point x="750" y="463" type="curve"/>
      <point x="750" y="463"/>
      <point x="599" y="535"/>
      <point x="554" y="535" type="curve" smooth="yes"/>
      <point x="478" y="535"/>
      <point x="419" y="438"/>
    </contour>
  </outline>
</glyph>
<glyph name="sterling" format="1">
  <advance width="1264"/>
  <unicode hex="00A3"/>
  <outline>
    <contour>
      <point x="162.0" y="0.0" type="line"/>
      <point x="175.0" y="179.0" type="line"/>
      <point x="262.0" y="252.0"/>
      <point x="362.0" y="335.0"/>
      <point x="387.0" y="616.0" type="curve" smooth="yes"/>
      <point x="391.0" y="661.0" type="line"/>
      <point x="219.0" y="661.0" type="line"/>
      <point x="234.0" y="838.0" type="line"/>
      <point x="403.0" y="838.0" type="line"/>
      <point x="409.0" y="901.0" type="line" smooth="yes"/>
      <point x="437.0" y="1220.0"/>
      <point x="543.0" y="1483.0"/>
      <point x="944.0" y="1483.0" type="curve" smooth="yes"/>
      <point x="1076.0" y="1483.0"/>
      <point x="1179.0" y="1460.0"/>
      <point x="1264.0" y="1410.0" type="curve"/>
      <point x="1192.0" y="1227.0" type="line"/>
      <point x="1117.0" y="1263.0"/>
      <point x="1039.0" y="1290.0"/>
      <point x="944.0" y="1290.0" type="curve" smooth="yes"/>
      <point x="764.0" y="1290.0"/>
      <point x="674.0" y="1195.0"/>
      <point x="653.0" y="955.0" type="curve" smooth="yes"/>
      <point x="650.0" y="920.0"/>
      <point x="647.0" y="878.0"/>
      <point x="647.0" y="838.0" type="curve"/>
      <point x="959.0" y="838.0" type="line"/>
      <point x="944.0" y="661.0" type="line"/>
      <point x="640.0" y="661.0" type="line"/>
      <point x="639.0" y="648.0"/>
      <point x="638.0" y="632.0"/>
      <point x="635.0" y="612.0" type="curve" smooth="yes"/>
      <point x="619.0" y="496.0"/>
      <point x="576" y="278"/>
      <point x="487" y="195" type="curve"/>
      <point x="1169.0" y="195.0" type="line"/>
      <point x="1152.0" y="0.0" type="line"/>
    </contour>
  </outline>
</glyph>
<glyph name="yen" format="1">
  <advance width="1264"/>
  <unicode hex="00A5"/>
  <outline>
    <contour>
      <point x="1138" y="272" type="line"/>
      <point x="168" y="272" type="line"/>
      <point x="182" y="433" type="line"/>
      <point x="588" y="433" type="line"/>
      <point x="597" y="539" type="line"/>
      <point x="191" y="539" type="line"/>
      <point x="206" y="706" type="line"/>
      <point x="1174" y="706" type="line"/>
      <point x="1159" y="539" type="line"/>
      <point x="740" y="539" type="line"/>
      <point x="731" y="433" type="line"/>
      <point x="1152" y="433" type="line"/>
    </contour>
    <component base="Y" xOffset="-19"/>
  </outline>
</glyph>
<glyph name="copyright" format="1">
  <advance width="1829"/>
  <unicode hex="00A9"/>
  <outline>
    <contour>
      <point x="967" y="287" type="curve" smooth="yes"/>
      <point x="720" y="287"/>
      <point x="525" y="455"/>
      <point x="548" y="722" type="curve" smooth="yes"/>
      <point x="571" y="989"/>
      <point x="796" y="1157"/>
      <point x="1043" y="1157" type="curve" smooth="yes"/>
      <point x="1139" y="1157"/>
      <point x="1239" y="1130"/>
      <point x="1332" y="1070" type="curve"/>
      <point x="1268" y="919" type="line"/>
      <point x="1186" y="966"/>
      <point x="1109" y="986"/>
      <point x="1042" y="986" type="curve" smooth="yes"/>
      <point x="879" y="986"/>
      <point x="769" y="868"/>
      <point x="756" y="722" type="curve" smooth="yes"/>
      <point x="743" y="576"/>
      <point x="833" y="458"/>
      <point x="996" y="458" type="curve" smooth="yes"/>
      <point x="1063" y="458"/>
      <point x="1143" y="478"/>
      <point x="1233" y="525" type="curve"/>
      <point x="1271" y="374" type="line"/>
      <point x="1168" y="314"/>
      <point x="1063" y="287"/>
    </contour>
    <contour>
      <point x="1049" y="1483" type="curve" smooth="yes"/>
      <point x="1500" y="1483"/>
      <point x="1833" y="1136"/>
      <point x="1797" y="730" type="curve" smooth="yes"/>
      <point x="1761" y="319"/>
      <point x="1368" y="-23"/>
      <point x="925" y="-23" type="curve" smooth="yes"/>
      <point x="471" y="-23"/>
      <point x="142" y="321"/>
      <point x="178" y="733" type="curve" smooth="yes"/>
      <point x="214" y="1141"/>
      <point x="609" y="1483"/>
    </contour>
    <contour>
      <point x="1041" y="1363" type="curve" smooth="yes"/>
      <point x="664" y="1363"/>
      <point x="352" y="1091"/>
      <point x="321" y="733" type="curve" smooth="yes"/>
      <point x="289" y="372"/>
      <point x="556" y="96"/>
      <point x="934" y="96" type="curve" smooth="yes"/>
      <point x="1309" y="96"/>
      <point x="1622" y="371"/>
      <point x="1653" y="728" type="curve" smooth="yes"/>
      <point x="1685" y="1090"/>
      <point x="1418" y="1363"/>
    </contour>
  </outline>
</glyph>
<glyph name="registered" format="1">
  <advance width="1829"/>
  <unicode hex="00AE"/>
  <outline>
    <contour>
      <point x="823" y="820" type="line"/>
      <point x="921" y="820" type="line" smooth="yes"/>
      <point x="1052" y="820"/>
      <point x="1130" y="829"/>
      <point x="1138" y="926" type="curve" smooth="yes"/>
      <point x="1147" y="1034"/>
      <point x="1093" y="1045"/>
      <point x="935" y="1045" type="curve" smooth="yes"/>
      <point x="843" y="1045" type="line"/>
    </contour>
    <contour>
      <point x="565" y="288" type="line"/>
      <point x="646" y="1214" type="line"/>
      <point x="945" y="1214" type="line" smooth="yes"/>
      <point x="1233" y="1214"/>
      <point x="1365" y="1116"/>
      <point x="1350" y="939" type="curve" smooth="yes"/>
      <point x="1340" y="826"/>
      <point x="1274" y="717"/>
      <point x="1097" y="685" type="curve"/>
      <point x="1167" y="636"/>
      <point x="1216" y="548"/>
      <point x="1343" y="288" type="curve"/>
      <point x="1082" y="288" type="line"/>
      <point x="972" y="572"/>
      <point x="945" y="626"/>
      <point x="899" y="652" type="curve"/>
      <point x="808" y="652" type="line"/>
      <point x="776" y="288" type="line"/>
    </contour>
    <contour>
      <point x="1013" y="1363" type="curve" smooth="yes"/>
      <point x="636" y="1363"/>
      <point x="324" y="1091"/>
      <point x="293" y="733" type="curve" smooth="yes"/>
      <point x="261" y="372"/>
      <point x="528" y="96"/>
      <point x="906" y="96" type="curve" smooth="yes"/>
      <point x="1281" y="96"/>
      <point x="1594" y="371"/>
      <point x="1625" y="728" type="curve" smooth="yes"/>
      <point x="1657" y="1090"/>
      <point x="1390" y="1363"/>
    </contour>
    <contour>
      <point x="1021" y="1483" type="curve" smooth="yes"/>
      <point x="1472" y="1483"/>
      <point x="1805" y="1136"/>
      <point x="1769" y="730" type="curve" smooth="yes"/>
      <point x="1733" y="319"/>
      <point x="1340" y="-23"/>
      <point x="897" y="-23" type="curve" smooth="yes"/>
      <point x="443" y="-23"/>
      <point x="114" y="321"/>
      <point x="150" y="733" type="curve" smooth="yes"/>
      <point x="186" y="1141"/>
      <point x="581" y="1483"/>
    </contour>
  </outline>
</glyph>
<glyph name="plusminus" format="1">
  <advance width="1264"/>
  <unicode hex="00B1"/>
  <outline>
    <contour>
      <point x="568" y="249" type="line"/>
      <point x="595" y="557" type="line"/>
      <point x="268" y="557" type="line"/>
      <point x="285" y="749" type="line"/>
      <point x="607" y="749" type="line"/>
      <point x="634" y="1062" type="line"/>
      <point x="858" y="1062" type="line"/>
      <point x="831" y="749" type="line"/>
      <point x="1164" y="749" type="line"/>
      <point x="1147" y="557" type="line"/>
      <point x="823" y="557" type="line"/>
      <point x="796" y="249" type="line"/>
    </contour>
    <contour>
      <point x="218" y="0" type="line"/>
      <point x="233" y="172" type="line"/>
      <point x="1120" y="172" type="line"/>
      <point x="1105" y="0" type="line"/>
    </contour>
  </outline>
</glyph>
<glyph name="threesuperior" format="1">
  <advance width="924.85744637"/>
  <unicode hex="00B3"/>
  <outline>
    <contour>
      <point x="537" y="617" type="curve" smooth="yes"/>
      <point x="435" y="617"/>
      <point x="324" y="650"/>
      <point x="232" y="711" type="curve"/>
      <point x="312" y="861" type="line"/>
      <point x="403" y="800"/>
      <point x="497" y="783"/>
      <point x="550" y="783" type="curve" smooth="yes"/>
      <point x="613" y="783"/>
      <point x="657" y="819"/>
      <point x="663" y="886" type="curve" smooth="yes"/>
      <point x="669" y="953"/>
      <point x="609" y="978"/>
      <point x="505" y="978" type="curve" smooth="yes"/>
      <point x="418" y="978" type="line"/>
      <point x="433" y="1155" type="line"/>
      <point x="517" y="1155" type="line" smooth="yes"/>
      <point x="601" y="1155"/>
      <point x="666" y="1175"/>
      <point x="671" y="1235" type="curve" smooth="yes"/>
      <point x="676" y="1290"/>
      <point x="637" y="1317"/>
      <point x="582" y="1317" type="curve" smooth="yes"/>
      <point x="510" y="1317"/>
      <point x="418" y="1287"/>
      <point x="336" y="1239" type="curve"/>
      <point x="282" y="1387" type="line"/>
      <point x="375" y="1442"/>
      <point x="493" y="1483"/>
      <point x="609" y="1483" type="curve" smooth="yes"/>
      <point x="748" y="1483"/>
      <point x="885" y="1404"/>
      <point x="872" y="1258" type="curve" smooth="yes"/>
      <point x="866" y="1195"/>
      <point x="834" y="1108"/>
      <point x="736" y="1071" type="curve"/>
      <point x="829" y="1028"/>
      <point x="866" y="963"/>
      <point x="859" y="883" type="curve" smooth="yes"/>
      <point x="843" y="700"/>
      <point x="700" y="617"/>
    </contour>
  </outline>
</glyph>
<glyph name="periodcentered" format="1">
  <advance width="444"/>
  <unicode hex="00B7"/>
  <outline>
    <contour>
      <point x="132" y="547" type="line"/>
      <point x="154" y="809" type="line"/>
      <point x="433" y="809" type="line"/>
      <point x="411" y="547" type="line"/>
    </contour>
  </outline>
</glyph>
<glyph name="cedilla" format="1">
  <advance width="529"/>
  <unicode hex="00B8"/>
  <outline>
    <contour>
      <point x="220" y="-419" type="curve" smooth="yes"/>
      <point x="163" y="-419"/>
      <point x="87" y="-407"/>
      <point x="11" y="-395" type="curve"/>
      <point x="37" y="-259" type="line"/>
      <point x="115" y="-269"/>
      <point x="178" y="-277"/>
      <point x="215" y="-277" type="curve" smooth="yes"/>
      <point x="261" y="-277"/>
      <point x="286" y="-248"/>
      <point x="289" y="-218" type="curve" smooth="yes"/>
      <point x="292" y="-187"/>
      <point x="271" y="-154"/>
      <point x="150" y="-150" type="curve"/>
      <point x="129" y="-150" type="line"/>
      <point x="176" y="31" type="line"/>
      <point x="291" y="31" type="line"/>
      <point x="264" y="-73" type="line"/>
      <point x="432" y="-91"/>
      <point x="504" y="-165"/>
      <point x="498" y="-239" type="curve" smooth="yes"/>
      <point x="490" y="-328"/>
      <point x="390" y="-419"/>
    </contour>
  </outline>
</glyph>
<glyph name="onesuperior" format="1">
  <advance width="942"/>
  <unicode hex="00B9"/>
  <outline>
    <contour>
      <point x="293" y="645" type="line"/>
      <point x="307" y="801" type="line"/>
      <point x="460" y="801" type="line"/>
      <point x="499" y="1283" type="line"/>
      <point x="460" y="1266"/>
      <point x="356" y="1243"/>
      <point x="312" y="1228" type="curve"/>
      <point x="328" y="1387" type="line"/>
      <point x="419" y="1416"/>
      <point x="513" y="1443"/>
      <point x="556" y="1466" type="curve"/>
      <point x="707" y="1487" type="line"/>
      <point x="647" y="799" type="line"/>
      <point x="792" y="799" type="line"/>
      <point x="778" y="645" type="line"/>
    </contour>
  </outline>
</glyph>
<glyph name="onequarter" format="1">
  <advance width="2197"/>
  <unicode hex="00BC"/>
  <outline>
    <contour>
      <point x="1783" y="0" type="line"/>
      <point x="1799" y="175" type="line"/>
      <point x="1445" y="175" type="line"/>
      <point x="1456" y="303" type="line"/>
      <point x="1860" y="810" type="line"/>
      <point x="2044" y="810" type="line"/>
      <point x="2002" y="323" type="line"/>
      <point x="2116" y="323" type="line"/>
      <point x="2103" y="175" type="line"/>
      <point x="1987" y="175" type="line"/>
      <point x="1971" y="0" type="line"/>
    </contour>
    <contour>
      <point x="1666" y="323" type="curve"/>
      <point x="1810" y="323" type="line"/>
      <point x="1830" y="552" type="line"/>
      <point x="1799" y="507"/>
      <point x="1745" y="431"/>
    </contour>
    <contour>
      <point x="560" y="0" type="line"/>
      <point x="1572" y="1409" type="line"/>
      <point x="1806" y="1409" type="line"/>
      <point x="795" y="0" type="line"/>
    </contour>
    <contour>
      <point x="306" y="564" type="line"/>
      <point x="321" y="742" type="line"/>
      <point x="434" y="742" type="line"/>
      <point x="471" y="1162" type="line"/>
      <point x="432" y="1145"/>
      <point x="367" y="1122"/>
      <point x="323" y="1107" type="curve"/>
      <point x="341" y="1306" type="line"/>
      <point x="432" y="1335"/>
      <point x="486" y="1362"/>
      <point x="529" y="1385" type="curve"/>
      <point x="679" y="1406" type="line"/>
      <point x="621" y="740" type="line"/>
      <point x="736" y="740" type="line"/>
      <point x="721" y="564" type="line"/>
    </contour>
  </outline>
</glyph>
<glyph name="onehalf" format="1">
  <advance width="2472"/>
  <unicode hex="00BD"/>
  <outline>
    <contour>
      <point x="378" y="564" type="line"/>
      <point x="393" y="742" type="line"/>
      <point x="506" y="742" type="line"/>
      <point x="543" y="1162" type="line"/>
      <point x="504" y="1145"/>
      <point x="439" y="1122"/>
      <point x="395" y="1107" type="curve"/>
      <point x="413" y="1306" type="line"/>
      <point x="504" y="1335"/>
      <point x="558" y="1362"/>
      <point x="601" y="1385" type="curve"/>
      <point x="751" y="1406" type="line"/>
      <point x="693" y="740" type="line"/>
      <point x="808" y="740" type="line"/>
      <point x="793" y="564" type="line"/>
    </contour>
    <contour>
      <point x="1565" y="0" type="line"/>
      <point x="1579" y="161" type="line"/>
      <point x="1946" y="436"/>
      <point x="2012" y="529"/>
      <point x="2018" y="592" type="curve" smooth="yes"/>
      <point x="2024" y="657"/>
      <point x="1980" y="683"/>
      <point x="1916" y="683" type="curve" smooth="yes"/>
      <point x="1846" y="683"/>
      <point x="1751" y="651"/>
      <point x="1672" y="605" type="curve"/>
      <point x="1620" y="753" type="line"/>
      <point x="1720" y="815"/>
      <point x="1840" y="849"/>
      <point x="1944" y="849" type="curve" smooth="yes"/>
      <point x="2102" y="849"/>
      <point x="2227" y="771"/>
      <point x="2212" y="594" type="curve" smooth="yes"/>
      <point x="2198" y="432"/>
      <point x="2033" y="303"/>
      <point x="1854" y="177" type="curve"/>
      <point x="2165" y="177" type="line"/>
      <point x="2149" y="0" type="line"/>
    </contour>
    <contour>
      <point x="640" y="0" type="line"/>
      <point x="1652" y="1409" type="line"/>
      <point x="1886" y="1409" type="line"/>
      <point x="875" y="0" type="line"/>
    </contour>
  </outline>
</glyph>
<glyph name="threequarters" format="1">
  <advance width="2455"/>
  <unicode hex="00BE"/>
  <outline>
    <contour>
      <point x="566" y="547" type="curve" smooth="yes"/>
      <point x="464" y="547"/>
      <point x="353" y="580"/>
      <point x="261" y="641" type="curve"/>
      <point x="341" y="791" type="line"/>
      <point x="432" y="730"/>
      <point x="526" y="713"/>
      <point x="579" y="713" type="curve" smooth="yes"/>
      <point x="642" y="713"/>
      <point x="686" y="749"/>
      <point x="692" y="816" type="curve" smooth="yes"/>
      <point x="698" y="883"/>
      <point x="638" y="908"/>
      <point x="534" y="908" type="curve" smooth="yes"/>
      <point x="447" y="908" type="line"/>
      <point x="462" y="1085" type="line"/>
      <point x="546" y="1085" type="line" smooth="yes"/>
      <point x="630" y="1085"/>
      <point x="695" y="1105"/>
      <point x="700" y="1165" type="curve" smooth="yes"/>
      <point x="705" y="1220"/>
      <point x="666" y="1247"/>
      <point x="611" y="1247" type="curve" smooth="yes"/>
      <point x="539" y="1247"/>
      <point x="446" y="1217"/>
      <point x="364" y="1169" type="curve"/>
      <point x="311" y="1317" type="line"/>
      <point x="404" y="1372"/>
      <point x="522" y="1413"/>
      <point x="638" y="1413" type="curve" smooth="yes"/>
      <point x="777" y="1413"/>
      <point x="914" y="1334"/>
      <point x="901" y="1188" type="curve" smooth="yes"/>
      <point x="895" y="1125"/>
      <point x="863" y="1038"/>
      <point x="765" y="1001" type="curve"/>
      <point x="858" y="958"/>
      <point x="895" y="893"/>
      <point x="888" y="813" type="curve" smooth="yes"/>
      <point x="872" y="630"/>
      <point x="729" y="547"/>
    </contour>
    <contour>
      <point x="1848" y="323" type="line"/>
      <point x="1994" y="323" type="line"/>
      <point x="2014" y="552" type="line"/>
    </contour>
    <contour>
      <point x="1968" y="0" type="line"/>
      <point x="1984" y="175" type="line"/>
      <point x="1630" y="175" type="line"/>
      <point x="1641" y="303" type="line"/>
      <point x="2043" y="810" type="line"/>
      <point x="2227" y="810" type="line"/>
      <point x="2184" y="323" type="line"/>
      <point x="2300" y="323" type="line"/>
      <point x="2288" y="175" type="line"/>
      <point x="2172" y="175" type="line"/>
      <point x="2156" y="0" type="line"/>
    </contour>
    <contour>
      <point x="721" y="0" type="line"/>
      <point x="1732" y="1409" type="line"/>
      <point x="1966" y="1409" type="line"/>
      <point x="956" y="0" type="line"/>
    </contour>
  </outline>
</glyph>
<glyph name="multiply" format="1">
  <advance width="1264"/>
  <unicode hex="00D7"/>
  <outline>
    <contour>
      <point x="401" y="122" type="line"/>
      <point x="261" y="275" type="line"/>
      <point x="558" y="548" type="line"/>
      <point x="309" y="821" type="line"/>
      <point x="475" y="974" type="line"/>
      <point x="724" y="701" type="line"/>
      <point x="1022" y="974" type="line"/>
      <point x="1161" y="822" type="line"/>
      <point x="863" y="548" type="line"/>
      <point x="1113" y="274" type="line"/>
      <point x="948" y="122" type="line"/>
      <point x="698" y="395" type="line"/>
    </contour>
  </outline>
</glyph>
<glyph name="Thorn" format="1">
  <advance width="1296"/>
  <unicode hex="00DE"/>
  <outline>
    <contour>
      <point x="186" y="0" type="line"/>
      <point x="312" y="1443" type="line"/>
      <point x="553" y="1443" type="line"/>
      <point x="534" y="1220" type="line"/>
      <point x="703" y="1220" type="line" smooth="yes"/>
      <point x="1046" y="1220"/>
      <point x="1312" y="1145"/>
      <point x="1280" y="774" type="curve" smooth="yes"/>
      <point x="1253" y="462"/>
      <point x="967" y="331"/>
      <point x="649" y="331" type="curve" smooth="yes"/>
      <point x="454" y="331" type="line"/>
      <point x="425" y="0" type="line"/>
    </contour>
    <contour>
      <point x="472" y="538" type="line"/>
      <point x="700" y="538" type="line" smooth="yes"/>
      <point x="884" y="538"/>
      <point x="1006" y="609"/>
      <point x="1020" y="774" type="curve" smooth="yes"/>
      <point x="1037" y="970"/>
      <point x="911" y="1015"/>
      <point x="697" y="1015" type="curve" smooth="yes"/>
      <point x="514" y="1015" type="line"/>
    </contour>
  </outline>
</glyph>
<glyph name="eth" format="1">
  <advance width="1218"/>
  <unicode hex="00F0"/>
  <outline>
    <contour>
      <point x="505" y="1005" type="line"/>
      <point x="449" y="1132" type="line"/>
      <point x="1089" y="1457" type="line"/>
      <point x="1145" y="1330" type="line"/>
    </contour>
    <contour>
      <point x="576" y="-24" type="curve" smooth="yes"/>
      <point x="277" y="-24"/>
      <point x="111" y="204"/>
      <point x="134" y="468" type="curve" smooth="yes"/>
      <point x="157" y="731"/>
      <point x="341" y="904"/>
      <point x="619" y="904" type="curve" smooth="yes"/>
      <point x="742" y="904"/>
      <point x="858" y="859"/>
      <point x="942" y="749" type="curve"/>
      <point x="943" y="764"/>
      <point x="941" y="785"/>
      <point x="937" y="809" type="curve" smooth="yes"/>
      <point x="920" y="902"/>
      <point x="905" y="1184"/>
      <point x="394" y="1303" type="curve"/>
      <point x="486" y="1456" type="line"/>
      <point x="633" y="1438"/>
      <point x="1207" y="1276"/>
      <point x="1150" y="623" type="curve" smooth="yes"/>
      <point x="1110" y="170"/>
      <point x="900" y="-24"/>
    </contour>
    <contour>
      <point x="609" y="168" type="curve" smooth="yes"/>
      <point x="733" y="168"/>
      <point x="868" y="265"/>
      <point x="884" y="450" type="curve" smooth="yes"/>
      <point x="898" y="611"/>
      <point x="771" y="706"/>
      <point x="643" y="706" type="curve" smooth="yes"/>
      <point x="517" y="706"/>
      <point x="391" y="628"/>
      <point x="376" y="451" type="curve" smooth="yes"/>
      <point x="359" y="260"/>
      <point x="479" y="168"/>
    </contour>
  </outline>
</glyph>
<glyph name="thorn" format="1">
  <advance width="1230"/>
  <unicode hex="00FE"/>
  <outline>
    <contour>
      <point x="109" y="-400" type="line"/>
      <point x="273" y="1462" type="line"/>
      <point x="501" y="1462" type="line"/>
      <point x="447" y="895" type="line"/>
      <point x="498" y="980"/>
      <point x="603" y="1051"/>
      <point x="755" y="1051" type="curve" smooth="yes"/>
      <point x="1043" y="1051"/>
      <point x="1202" y="808"/>
      <point x="1177" y="525" type="curve" smooth="yes"/>
      <point x="1152" y="240"/>
      <point x="939" y="-23"/>
      <point x="689" y="-23" type="curve" smooth="yes"/>
      <point x="538" y="-23"/>
      <point x="422" y="32"/>
      <point x="378" y="129" type="curve"/>
      <point x="331" y="-400" type="line"/>
    </contour>
    <contour>
      <point x="638" y="167" type="curve" smooth="yes"/>
      <point x="821" y="167"/>
      <point x="913" y="335"/>
      <point x="929" y="521" type="curve" smooth="yes"/>
      <point x="944" y="696"/>
      <point x="896" y="859"/>
      <point x="706" y="859" type="curve" smooth="yes"/>
      <point x="509" y="859"/>
      <point x="427" y="685"/>
      <point x="410" y="494" type="curve" smooth="yes"/>
      <point x="394" y="306"/>
      <point x="469" y="167"/>
    </contour>
  </outline>
</glyph>
<glyph name="lslash" format="1">
  <advance width="519"/>
  <unicode hex="0142"/>
  <outline>
    <contour>
      <point x="62" y="621" type="line"/>
      <point x="83" y="828" type="line"/>
      <point x="643" y="1197" type="line"/>
      <point x="621" y="987" type="line"/>
    </contour>
    <component base="l"/>
  </outline>
</glyph>
<glyph name="eng" format="1">
  <advance width="1199"/>
  <unicode hex="014B"/>
  <outline>
    <contour>
      <point x="200" y="-358" type="curve"/>
      <point x="249" y="-171" type="line"/>
      <point x="338" y="-197"/>
      <point x="433" y="-215"/>
      <point x="519" y="-215" type="curve" smooth="yes"/>
      <point x="684" y="-215"/>
      <point x="821" y="-148"/>
      <point x="839" y="60" type="curve" smooth="yes"/>
      <point x="885" y="592" type="line" smooth="yes"/>
      <point x="902" y="781"/>
      <point x="870" y="861"/>
      <point x="728" y="861" type="curve" smooth="yes"/>
      <point x="621" y="861"/>
      <point x="466" y="764"/>
      <point x="453" y="620" type="curve" smooth="yes"/>
      <point x="399" y="0" type="line"/>
      <point x="163" y="0" type="line"/>
      <point x="220" y="656" type="line" smooth="yes"/>
      <point x="240" y="883"/>
      <point x="234" y="1026"/>
      <point x="234" y="1026" type="curve"/>
      <point x="483" y="1026" type="line"/>
      <point x="470" y="879" type="line"/>
      <point x="541" y="995"/>
      <point x="686" y="1052"/>
      <point x="793" y="1052" type="curve" smooth="yes"/>
      <point x="1030" y="1052"/>
      <point x="1150" y="928"/>
      <point x="1120" y="580" type="curve" smooth="yes"/>
      <point x="1079" y="114" type="line" smooth="yes"/>
      <point x="1049" y="-231"/>
      <point x="835" y="-401"/>
      <point x="510" y="-401" type="curve" smooth="yes"/>
      <point x="415" y="-401"/>
      <point x="312" y="-386"/>
    </contour>
  </outline>
</glyph>
<glyph name="oe" format="1">
  <advance width="1998"/>
  <unicode hex="0153"/>
  <outline>
    <contour>
      <point x="610" y="-32" type="curve" smooth="yes"/>
      <point x="849" y="-32"/>
      <point x="960" y="96"/>
      <point x="1006" y="192" type="curve"/>
      <point x="1061" y="66"/>
      <point x="1223" y="-23"/>
      <point x="1385" y="-23" type="curve" smooth="yes"/>
      <point x="1622" y="-23"/>
      <point x="1773" y="71"/>
      <point x="1824" y="107" type="curve"/>
      <point x="1773" y="292" type="line"/>
      <point x="1707" y="242"/>
      <point x="1571" y="168"/>
      <point x="1418" y="168" type="curve" smooth="yes"/>
      <point x="1264" y="168"/>
      <point x="1148" y="252"/>
      <point x="1139" y="416" type="curve" smooth="yes"/>
      <point x="1139" y="422"/>
      <point x="1138" y="471"/>
      <point x="1138" y="478" type="curve"/>
      <point x="1874" y="478" type="line"/>
      <point x="1879" y="504" type="line" smooth="yes"/>
      <point x="1908" y="834"/>
      <point x="1757" y="1052"/>
      <point x="1463" y="1052" type="curve" smooth="yes"/>
      <point x="1274" y="1052"/>
      <point x="1124" y="948"/>
      <point x="1053" y="828" type="curve"/>
      <point x="1001" y="956"/>
      <point x="883" y="1055"/>
      <point x="699" y="1055" type="curve" smooth="yes"/>
      <point x="357" y="1055"/>
      <point x="147" y="804"/>
      <point x="121" y="511" type="curve" smooth="yes"/>
      <point x="95" y="215"/>
      <point x="300" y="-32"/>
    </contour>
    <contour>
      <point x="630" y="167" type="curve" smooth="yes"/>
      <point x="428" y="167"/>
      <point x="351" y="322"/>
      <point x="367" y="508" type="curve" smooth="yes"/>
      <point x="383" y="696"/>
      <point x="492" y="861"/>
      <point x="678" y="861" type="curve" smooth="yes"/>
      <point x="869" y="861"/>
      <point x="938" y="709"/>
      <point x="921" y="511" type="curve" smooth="yes"/>
      <point x="905" y="328"/>
      <point x="811" y="167"/>
    </contour>
    <contour>
      <point x="1159" y="636" type="line"/>
      <point x="1197" y="778"/>
      <point x="1317" y="869"/>
      <point x="1450" y="869" type="curve" smooth="yes"/>
      <point x="1598" y="869"/>
      <point x="1680" y="769"/>
      <point x="1686" y="638" type="curve"/>
      <point x="1686" y="636" type="line"/>
    </contour>
  </outline>
</glyph>
<glyph name="tbar" format="1">
  <advance width="795"/>
  <unicode hex="0167"/>
  <outline>
    <contour>
      <point x="115" y="514" type="line"/>
      <point x="130" y="685" type="line"/>
      <point x="747" y="685" type="line"/>
      <point x="732" y="514" type="line"/>
    </contour>
    <component base="t"/>
  </outline>
</glyph>
<glyph name="dotlessj" format="1">
  <advance width="563"/>
  <unicode hex="0237"/>
  <outline>
    <contour>
      <point x="59" y="-362" type="curve" smooth="yes"/>
      <point x="11" y="-362"/>
      <point x="-36" y="-360"/>
      <point x="-95" y="-351" type="curve"/>
      <point x="-64" y="-182" type="line"/>
      <point x="-31" y="-186"/>
      <point x="-3" y="-188"/>
      <point x="23" y="-188" type="curve" smooth="yes"/>
      <point x="158" y="-188"/>
      <point x="203" y="-125"/>
      <point x="219" y="62" type="curve" smooth="yes"/>
      <point x="304" y="1026" type="line"/>
      <point x="539" y="1026" type="line"/>
      <point x="452" y="39" type="line" smooth="yes"/>
      <point x="432" y="-190"/>
      <point x="355" y="-362"/>
    </contour>
  </outline>
</glyph>
<glyph name="circumflex" format="1">
  <advance width="699"/>
  <unicode hex="02C6"/>
  <outline>
    <contour>
      <point x="94" y="1087" type="line"/>
      <point x="384" y="1456" type="line"/>
      <point x="578" y="1456" type="line"/>
      <point x="810" y="1087" type="line"/>
      <point x="590" y="1087" type="line"/>
      <point x="463" y="1263" type="line"/>
      <point x="304" y="1087" type="line"/>
    </contour>
  </outline>
</glyph>
<glyph name="breve" format="1">
  <advance width="629"/>
  <unicode hex="02D8"/>
  <outline>
    <contour>
      <point x="431" y="1171" type="curve" smooth="yes"/>
      <point x="245" y="1171"/>
      <point x="140" y="1261"/>
      <point x="143" y="1456" type="curve"/>
      <point x="309" y="1456" type="line"/>
      <point x="309" y="1361"/>
      <point x="383" y="1337"/>
      <point x="445" y="1337" type="curve" smooth="yes"/>
      <point x="507" y="1337"/>
      <point x="585" y="1361"/>
      <point x="603" y="1456" type="curve"/>
      <point x="767" y="1456" type="line"/>
      <point x="736" y="1261"/>
      <point x="617" y="1171"/>
    </contour>
  </outline>
</glyph>
<glyph name="ogonek" format="1">
  <advance width="508"/>
  <unicode hex="02DB"/>
  <outline>
    <contour>
      <point x="227" y="-374" type="curve" smooth="yes"/>
      <point x="101" y="-374"/>
      <point x="13" y="-332"/>
      <point x="21" y="-235" type="curve" smooth="yes"/>
      <point x="33" y="-94"/>
      <point x="199" y="-20"/>
      <point x="283" y="20" type="curve"/>
      <point x="411" y="20" type="line"/>
      <point x="312" y="-35"/>
      <point x="245" y="-120"/>
      <point x="240" y="-175" type="curve" smooth="yes"/>
      <point x="236" y="-217"/>
      <point x="269" y="-230"/>
      <point x="311" y="-230" type="curve" smooth="yes"/>
      <point x="371" y="-230"/>
      <point x="451" y="-204"/>
      <point x="480" y="-196" type="curve"/>
      <point x="468" y="-335" type="line"/>
      <point x="384" y="-360"/>
      <point x="299" y="-374"/>
    </contour>
  </outline>
</glyph>
<glyph name="tilde" format="1">
  <advance width="663"/>
  <unicode hex="02DC"/>
  <outline>
    <contour>
      <point x="102" y="1147" type="line"/>
      <point x="126" y="1303"/>
      <point x="202" y="1428"/>
      <point x="328" y="1428" type="curve" smooth="yes"/>
      <point x="443" y="1428"/>
      <point x="544" y="1323"/>
      <point x="603" y="1323" type="curve" smooth="yes"/>
      <point x="644" y="1323"/>
      <point x="653" y="1363"/>
      <point x="667" y="1428" type="curve"/>
      <point x="822" y="1428" type="line"/>
      <point x="795" y="1280"/>
      <point x="731" y="1142"/>
      <point x="599" y="1142" type="curve" smooth="yes"/>
      <point x="504" y="1142"/>
      <point x="385" y="1248"/>
      <point x="322" y="1248" type="curve" smooth="yes"/>
      <point x="293" y="1248"/>
      <point x="267" y="1221"/>
      <point x="254" y="1147" type="curve"/>
    </contour>
  </outline>
</glyph>
<glyph name="hungarumlaut" format="1">
  <advance width="969"/>
  <unicode hex="02DD"/>
  <outline>
    <contour>
      <point x="232" y="1125" type="line"/>
      <point x="464" y="1483" type="line"/>
      <point x="732" y="1483" type="line"/>
      <point x="402" y="1125" type="line"/>
    </contour>
    <contour>
      <point x="549" y="1125" type="line"/>
      <point x="818" y="1483" type="line"/>
      <point x="1102" y="1483" type="line"/>
      <point x="726" y="1125" type="line"/>
    </contour>
  </outline>
</glyph>
<glyph name="dblgravecomb" format="1">
  <advance width="969"/>
  <unicode hex="030F"/>
  <outline>
    <contour>
      <point x="756" y="1125" type="line"/>
      <point x="926" y="1125" type="line"/>
      <point x="758" y="1483" type="line"/>
      <point x="490" y="1483" type="line"/>
    </contour>
    <contour>
      <point x="432" y="1125" type="line"/>
      <point x="609" y="1125" type="line"/>
      <point x="404" y="1483" type="line"/>
      <point x="120" y="1483" type="line"/>
    </contour>
  </outline>
</glyph>
<glyph name="breveinvertedcomb" format="1">
  <advance width="629"/>
  <unicode hex="0311"/>
  <outline>
    <contour>
      <point x="100" y="1162" type="curve"/>
      <point x="266" y="1162" type="line"/>
      <point x="282" y="1257"/>
      <point x="360" y="1281"/>
      <point x="422" y="1281" type="curve" smooth="yes"/>
      <point x="484" y="1281"/>
      <point x="558" y="1257"/>
      <point x="560" y="1162" type="curve"/>
      <point x="724" y="1162" type="line"/>
      <point x="727" y="1357"/>
      <point x="622" y="1447"/>
      <point x="436" y="1447" type="curve" smooth="yes"/>
      <point x="250" y="1447"/>
      <point x="131" y="1357"/>
    </contour>
  </outline>
</glyph>
<glyph name="mu" format="1">
  <advance width="1191"/>
  <unicode hex="03BC"/>
  <outline>
    <contour>
      <point x="136" y="-227" type="line"/>
      <point x="376" y="-227" type="line"/>
      <point x="398" y="24" type="line"/>
      <point x="429" y="-5"/>
      <point x="493" y="-23"/>
      <point x="553" y="-23" type="curve" smooth="yes"/>
      <point x="658" y="-23"/>
      <point x="783" y="28"/>
      <point x="843" y="152" type="curve"/>
      <point x="834" y="0" type="line"/>
      <point x="1079" y="0" type="line"/>
      <point x="1077" y="92"/>
      <point x="1080" y="166"/>
      <point x="1088" y="262" type="curve" smooth="yes"/>
      <point x="1155" y="1026" type="line"/>
      <point x="917" y="1026" type="line"/>
      <point x="864" y="422" type="line" smooth="yes"/>
      <point x="847" y="227"/>
      <point x="755" y="167"/>
      <point x="603" y="167" type="curve" smooth="yes"/>
      <point x="459" y="167"/>
      <point x="415" y="267"/>
      <point x="430" y="444" type="curve"/>
      <point x="477" y="1026" type="line"/>
      <point x="246" y="1026" type="line"/>
    </contour>
  </outline>
</glyph>
<glyph name="endash" format="1">
  <advance width="1085"/>
  <unicode hex="2013"/>
  <outline>
    <contour>
      <point x="42" y="458" type="line"/>
      <point x="60" y="653" type="line"/>
      <point x="1163" y="653" type="line"/>
      <point x="1145" y="458" type="line"/>
    </contour>
  </outline>
</glyph>
<glyph name="quotesinglbase" format="1">
  <advance width="553"/>
  <unicode hex="201A"/>
  <outline>
    <contour>
      <point x="71" y="-223" type="line"/>
      <point x="227" y="253" type="line"/>
      <point x="486" y="253" type="line"/>
      <point x="278" y="-223" type="line"/>
    </contour>
  </outline>
</glyph>
<glyph name="dagger" format="1">
  <advance width="1022"/>
  <unicode hex="2020"/>
  <outline>
    <contour>
      <point x="419" y="0" type="line"/>
      <point x="499" y="907" type="line"/>
      <point x="183" y="907" type="line"/>
      <point x="199" y="1096" type="line"/>
      <point x="515" y="1096" type="line"/>
      <point x="547" y="1456" type="line"/>
      <point x="757" y="1456" type="line"/>
      <point x="725" y="1096" type="line"/>
      <point x="1046" y="1096" type="line"/>
      <point x="1030" y="907" type="line"/>
      <point x="709" y="907" type="line"/>
      <point x="629" y="0" type="line"/>
    </contour>
  </outline>
</glyph>
<glyph name="daggerdbl" format="1">
  <advance width="1022"/>
  <unicode hex="2021"/>
  <outline>
    <contour>
      <point x="410" y="106" type="line"/>
      <point x="481" y="408" type="line"/>
      <point x="139" y="408" type="line"/>
      <point x="155" y="591" type="line"/>
      <point x="497" y="591" type="line"/>
      <point x="526" y="920" type="line"/>
      <point x="188" y="920" type="line"/>
      <point x="204" y="1110" type="line"/>
      <point x="542" y="1110" type="line"/>
      <point x="526" y="1424" type="line"/>
      <point x="769" y="1424" type="line"/>
      <point x="710" y="1110" type="line"/>
      <point x="1051" y="1110" type="line"/>
      <point x="1035" y="920" type="line"/>
      <point x="694" y="920" type="line"/>
      <point x="665" y="591" type="line"/>
      <point x="997" y="591" type="line"/>
      <point x="981" y="408" type="line"/>
      <point x="649" y="408" type="line"/>
      <point x="653" y="106" type="line"/>
    </contour>
  </outline>
</glyph>
<glyph name="bullet" format="1">
  <advance width="988.388861671"/>
  <unicode hex="2022"/>
  <outline>
    <contour>
      <point x="524.755553801" y="362" type="curve" smooth="yes"/>
      <point x="321.755553801" y="362"/>
      <point x="200.755553801" y="511"/>
      <point x="215.755553801" y="683" type="curve" smooth="yes"/>
      <point x="230.755553801" y="859"/>
      <point x="392.755553801" y="1010"/>
      <point x="581.755553801" y="1010" type="curve" smooth="yes"/>
      <point x="779.755553801" y="1010"/>
      <point x="907.755553801" y="865"/>
      <point x="892.755553801" y="690" type="curve" smooth="yes"/>
      <point x="877.755553801" y="515"/>
      <point x="715.755553801" y="362"/>
    </contour>
  </outline>
</glyph>
<glyph name="ellipsis" format="1">
  <advance width="1620"/>
  <unicode hex="2026"/>
  <outline>
    <contour>
      <point x="110" y="-11" type="line"/>
      <point x="132" y="251" type="line"/>
      <point x="421" y="251" type="line"/>
      <point x="400" y="-11" type="line"/>
    </contour>
    <contour>
      <point x="634" y="-11" type="line"/>
      <point x="656" y="251" type="line"/>
      <point x="945" y="251" type="line"/>
      <point x="924" y="-11" type="line"/>
    </contour>
    <contour>
      <point x="1158" y="-11" type="line"/>
      <point x="1180" y="251" type="line"/>
      <point x="1467" y="251" type="line"/>
      <point x="1445" y="-11" type="line"/>
    </contour>
  </outline>
</glyph>
<glyph name="perthousand" format="1">
  <advance width="2555"/>
  <unicode hex="2030"/>
  <outline>
    <contour>
      <point x="464" y="808" type="curve" smooth="yes"/>
      <point x="573" y="808"/>
      <point x="635" y="909"/>
      <point x="646" y="1036" type="curve" smooth="yes"/>
      <point x="656" y="1153"/>
      <point x="620" y="1265"/>
      <point x="504" y="1265" type="curve" smooth="yes"/>
      <point x="388" y="1265"/>
      <point x="332" y="1153"/>
      <point x="322" y="1036" type="curve" smooth="yes"/>
      <point x="311" y="909"/>
      <point x="355" y="808"/>
    </contour>
    <contour>
      <point x="451" y="658" type="curve" smooth="yes"/>
      <point x="227" y="658"/>
      <point x="102" y="820"/>
      <point x="121" y="1036" type="curve" smooth="yes"/>
      <point x="139" y="1245"/>
      <point x="292" y="1415"/>
      <point x="517" y="1415" type="curve" smooth="yes"/>
      <point x="742" y="1415"/>
      <point x="865" y="1245"/>
      <point x="847" y="1036" type="curve" smooth="yes"/>
      <point x="828" y="820"/>
      <point x="675" y="658"/>
    </contour>
    <contour>
      <point x="283" y="0" type="line"/>
      <point x="1315" y="1414" type="line"/>
      <point x="1510" y="1414" type="line"/>
      <point x="477" y="0" type="line"/>
    </contour>
    <contour>
      <point x="1278" y="128" type="curve" smooth="yes"/>
      <point x="1387" y="128"/>
      <point x="1449" y="229"/>
      <point x="1460" y="356" type="curve" smooth="yes"/>
      <point x="1470" y="473"/>
      <point x="1434" y="585"/>
      <point x="1318" y="585" type="curve" smooth="yes"/>
      <point x="1202" y="585"/>
      <point x="1146" y="473"/>
      <point x="1136" y="356" type="curve" smooth="yes"/>
      <point x="1125" y="229"/>
      <point x="1169" y="128"/>
    </contour>
    <contour>
      <point x="1265" y="-22" type="curve" smooth="yes"/>
      <point x="1041" y="-22"/>
      <point x="916" y="140"/>
      <point x="935" y="356" type="curve" smooth="yes"/>
      <point x="953" y="565"/>
      <point x="1106" y="735"/>
      <point x="1331" y="735" type="curve" smooth="yes"/>
      <point x="1556" y="735"/>
      <point x="1679" y="565"/>
      <point x="1661" y="356" type="curve" smooth="yes"/>
      <point x="1642" y="140"/>
      <point x="1489" y="-22"/>
    </contour>
    <contour>
      <point x="2101" y="128" type="curve" smooth="yes"/>
      <point x="2210" y="128"/>
      <point x="2272" y="229"/>
      <point x="2283" y="356" type="curve" smooth="yes"/>
      <point x="2293" y="473"/>
      <point x="2257" y="585"/>
      <point x="2141" y="585" type="curve" smooth="yes"/>
      <point x="2025" y="585"/>
      <point x="1969" y="473"/>
      <point x="1959" y="356" type="curve" smooth="yes"/>
      <point x="1948" y="229"/>
      <point x="1992" y="128"/>
    </contour>
    <contour>
      <point x="2088" y="-22" type="curve" smooth="yes"/>
      <point x="1864" y="-22"/>
      <point x="1739" y="140"/>
      <point x="1758" y="356" type="curve" smooth="yes"/>
      <point x="1776" y="565"/>
      <point x="1929" y="735"/>
      <point x="2154" y="735" type="curve" smooth="yes"/>
      <point x="2379" y="735"/>
      <point x="2502" y="565"/>
      <point x="2484" y="356" type="curve" smooth="yes"/>
      <point x="2465" y="140"/>
      <point x="2312" y="-22"/>
    </contour>
  </outline>
</glyph>
<glyph name="guilsinglleft" format="1">
  <advance width="642"/>
  <unicode hex="2039"/>
  <outline>
    <contour>
      <point x="341" y="160" type="line"/>
      <point x="98" y="541" type="line"/>
      <point x="411" y="921" type="line"/>
      <point x="655" y="921" type="line"/>
      <point x="353" y="540" type="line"/>
      <point x="582" y="160" type="line"/>
    </contour>
  </outline>
</glyph>
<glyph name="guilsinglright" format="1">
  <advance width="642"/>
  <unicode hex="203A"/>
  <outline>
    <contour>
      <point x="97" y="160" type="line"/>
      <point x="397" y="544" type="line"/>
      <point x="174" y="921" type="line"/>
      <point x="408" y="921" type="line"/>
      <point x="653" y="542" type="line"/>
      <point x="337" y="160" type="line"/>
    </contour>
  </outline>
</glyph>
<glyph name="foursuperior" format="1">
  <advance width="897"/>
  <unicode hex="2074"/>
  <outline>
    <contour>
      <point x="532" y="647" type="line"/>
      <point x="547" y="822" type="line"/>
      <point x="193" y="822" type="line"/>
      <point x="204" y="950" type="line"/>
      <point x="606" y="1457" type="line"/>
      <point x="790" y="1457" type="line"/>
      <point x="745" y="950" type="line"/>
      <point x="861" y="950" type="line"/>
      <point x="851" y="822" type="line"/>
      <point x="735" y="822" type="line"/>
      <point x="720" y="647" type="line"/>
    </contour>
    <contour>
      <point x="359" y="950" type="line"/>
      <point x="555" y="950" type="line"/>
      <point x="582" y="1249" type="line"/>
    </contour>
  </outline>
</glyph>
<glyph name="euro" format="1">
  <advance width="1190"/>
  <unicode hex="20AC"/>
  <outline>
    <contour>
      <point x="726" y="-21" type="curve" smooth="yes"/>
      <point x="853" y="-21"/>
      <point x="974" y="13"/>
      <point x="1088" y="86" type="curve"/>
      <point x="1104" y="261" type="line"/>
      <point x="953" y="205"/>
      <point x="839" y="182"/>
      <point x="758" y="182" type="curve" smooth="yes"/>
      <point x="580" y="182"/>
      <point x="493" y="304"/>
      <point x="478" y="483" type="curve"/>
      <point x="980" y="483" type="line"/>
      <point x="1017" y="636" type="line"/>
      <point x="475" y="636" type="line"/>
      <point x="471" y="658"/>
      <point x="471" y="683"/>
      <point x="473" y="709" type="curve" smooth="yes"/>
      <point x="475" y="736"/>
      <point x="481" y="763"/>
      <point x="486" y="786" type="curve"/>
      <point x="1036" y="786" type="line"/>
      <point x="1075" y="929" type="line"/>
      <point x="525" y="929" type="line"/>
      <point x="589" y="1098"/>
      <point x="692" y="1222"/>
      <point x="860" y="1222" type="curve" smooth="yes"/>
      <point x="955" y="1222"/>
      <point x="1066" y="1186"/>
      <point x="1157" y="1120" type="curve"/>
      <point x="1217" y="1285" type="line"/>
      <point x="1133" y="1378"/>
      <point x="1018" y="1421"/>
      <point x="879" y="1421" type="curve" smooth="yes"/>
      <point x="569" y="1421"/>
      <point x="359" y="1218"/>
      <point x="272" y="929" type="curve"/>
      <point x="156" y="929" type="line"/>
      <point x="114" y="786" type="line"/>
      <point x="236" y="786" type="line"/>
      <point x="228" y="756"/>
      <point x="222" y="727"/>
      <point x="220" y="700" type="curve" smooth="yes"/>
      <point x="218" y="677"/>
      <point x="219" y="655"/>
      <point x="222" y="636" type="curve"/>
      <point x="131" y="636" type="line"/>
      <point x="92" y="483" type="line"/>
      <point x="227" y="483" type="line"/>
      <point x="250" y="183"/>
      <point x="398" y="-21"/>
    </contour>
  </outline>
</glyph>
<glyph name="increment" format="1">
  <advance width="1309"/>
  <unicode hex="2206"/>
  <outline>
    <contour>
      <point x="333" y="176" type="line"/>
      <point x="775" y="1160" type="line"/>
      <point x="1034" y="176" type="line"/>
    </contour>
    <contour>
      <point x="52" y="0" type="line"/>
      <point x="1283" y="0" type="line"/>
      <point x="1292" y="103" type="line"/>
      <point x="902" y="1402" type="line"/>
      <point x="678" y="1402" type="line"/>
      <point x="61" y="103" type="line"/>
    </contour>
  </outline>
</glyph>
<glyph name="product" format="1">
  <advance width="1568"/>
  <unicode hex="220F"/>
  <outline>
    <contour>
      <point x="222" y="-248" type="line"/>
      <point x="355" y="1263" type="line"/>
      <point x="150" y="1263" type="line"/>
      <point x="171" y="1456" type="line"/>
      <point x="1651" y="1456" type="line"/>
      <point x="1636" y="1263" type="line"/>
      <point x="1457" y="1263" type="line"/>
      <point x="1324" y="-248" type="line"/>
      <point x="1058" y="-248" type="line"/>
      <point x="1191" y="1263" type="line"/>
      <point x="614" y="1263" type="line"/>
      <point x="481" y="-248" type="line"/>
    </contour>
  </outline>
</glyph>
<glyph name="summation" format="1">
  <advance width="1264"/>
  <unicode hex="2211"/>
  <outline>
    <contour>
      <point x="73" y="-248" type="line"/>
      <point x="85" y="-120" type="line"/>
      <point x="743" y="613" type="line"/>
      <point x="234" y="1332" type="line"/>
      <point x="245" y="1456" type="line"/>
      <point x="1358" y="1456" type="line"/>
      <point x="1340" y="1260" type="line"/>
      <point x="574" y="1260" type="line"/>
      <point x="1030" y="616" type="line"/>
      <point x="444" y="-45" type="line"/>
      <point x="1269" y="-45" type="line"/>
      <point x="1251" y="-248" type="line"/>
    </contour>
  </outline>
</glyph>
<glyph name="lessequal" format="1">
  <advance width="1351"/>
  <unicode hex="2264"/>
  <outline>
    <contour>
      <point x="1161" y="255" type="line"/>
      <point x="215" y="639" type="line"/>
      <point x="224" y="747" type="line"/>
      <point x="1241" y="1168" type="line"/>
      <point x="1224" y="967" type="line"/>
      <point x="482" y="697" type="line"/>
      <point x="1180" y="464" type="line"/>
    </contour>
    <contour>
      <point x="159" y="0" type="line"/>
      <point x="174" y="176" type="line"/>
      <point x="1154" y="176" type="line"/>
      <point x="1139" y="0" type="line"/>
    </contour>
  </outline>
</glyph>
<glyph name="lozenge" format="1">
  <advance width="1248"/>
  <unicode hex="25CA"/>
  <outline>
    <contour>
      <point x="629" y="208" type="line"/>
      <point x="967" y="700" type="line"/>
      <point x="721" y="1179" type="line"/>
      <point x="384" y="700" type="line"/>
    </contour>
    <contour>
      <point x="529" y="-40" type="line"/>
      <point x="153" y="700" type="line"/>
      <point x="665" y="1442" type="line"/>
      <point x="820" y="1442" type="line"/>
      <point x="1199" y="701" type="line"/>
      <point x="683" y="-40" type="line"/>
    </contour>
  </outline>
</glyph>
<glyph name="fi" format="1">
  <advance width="1250.22937588"/>
  <unicode hex="FB01"/>
  <outline>
    <contour>
      <point x="1232.94015994" y="1254" type="line"/>
      <point x="1250.94015994" y="1463" type="line"/>
      <point x="1028.94015994" y="1463" type="line"/>
      <point x="1010.94015994" y="1254" type="line"/>
    </contour>
    <contour>
      <point x="526.940159941" y="0" type="line"/>
      <point x="602.940159941" y="868" type="line"/>
      <point x="963.940159941" y="868" type="line"/>
      <point x="887.940159941" y="0" type="line"/>
      <point x="1122.94015994" y="0" type="line"/>
      <point x="1212.94015994" y="1026" type="line"/>
      <point x="616.940159941" y="1026" type="line"/>
      <point x="618.940159941" y="1054" type="line"/>
      <point x="639.940159941" y="1268"/>
      <point x="671.940159941" y="1281"/>
      <point x="808.940159941" y="1281" type="curve" smooth="yes"/>
      <point x="808.940159941" y="1281"/>
      <point x="880.940159941" y="1281.0"/>
      <point x="880.940159941" y="1281" type="curve"/>
      <point x="896.940159941" y="1464" type="line"/>
      <point x="844.940159941" y="1464" type="line" smooth="yes"/>
      <point x="494.940159941" y="1464"/>
      <point x="408.940159941" y="1339"/>
      <point x="383.940159941" y="1053" type="curve" smooth="yes"/>
      <point x="381.940159941" y="1026" type="line"/>
      <point x="192.940159941" y="1026" type="line"/>
      <point x="178.940159941" y="868" type="line"/>
      <point x="367.940159941" y="868" type="line"/>
      <point x="291.940159941" y="0" type="line"/>
    </contour>
  </outline>
</glyph>
<glyph name="fl" format="1">
  <advance width="1302.9442452"/>
  <unicode hex="FB02"/>
  <outline>
    <contour>
      <point x="575.940159941" y="868" type="line"/>
      <point x="499.940159941" y="0" type="line"/>
      <point x="264.940159941" y="0" type="line"/>
      <point x="340.940159941" y="868" type="line"/>
      <point x="151.940159941" y="868" type="line"/>
      <point x="165.940159941" y="1026" type="line"/>
      <point x="354.940159941" y="1026" type="line"/>
      <point x="356.940159941" y="1053" type="line" smooth="yes"/>
      <point x="381.940159941" y="1338"/>
      <point x="467.940159941" y="1463"/>
      <point x="817.940159941" y="1463" type="curve" smooth="yes"/>
      <point x="1296.94015994" y="1463" type="line"/>
      <point x="1168.94015994" y="0" type="line"/>
      <point x="934.940159941" y="0" type="line"/>
      <point x="1046.94015994" y="1281" type="line"/>
      <point x="845.940159941" y="1281" type="line" smooth="yes"/>
      <point x="650.940159941" y="1281"/>
      <point x="607.940159941" y="1236"/>
      <point x="595.940159941" y="1102" type="curve" smooth="yes"/>
      <point x="589.940159941" y="1026" type="line"/>
      <point x="823.940159941" y="1026" type="line"/>
      <point x="809.940159941" y="868" type="line"/>
    </contour>
  </outline>
</glyph>
